<svg  xmlns="http://www.w3.org/2000/svg" xmlns:xlink="http://www.w3.org/1999/xlink" width="1558" height="100" viewBox="0 0 1582 124"><path transform="translate(0 100)" d="M75.5,-28.6L75.5,-56.1L51.8,-56.1L51.8,-28.6L75.5,-28.6ZM46.6,-28.6L46.6,-56.1L23.7,-56.1L23.7,-28.6L46.6,-28.6ZM49.8,7.2L48.6,7.2Q46.6,7.2 46.6,5.2L46.6,-26.1L23.7,-26.1L23.7,-19.9Q23.7,-17.9 21.7,-17.9L20.6,-17.9Q18.6,-17.9 18.6,-19.9L18.6,-58.8Q18.6,-61 19.9,-61Q20.6,-61 21.4,-60.5Q22.1,-60.1 22.85,-59.6Q23.6,-59.1 24.5,-58.6L46.6,-58.6L46.6,-79.1Q46.6,-81.1 48.3,-81.1Q48.8,-81.1 50,-80.95Q51.2,-80.8 52.45,-80.55Q53.7,-80.3 54.65,-79.8Q55.6,-79.3 55.6,-78.6Q55.6,-77.3 51.8,-75.6L51.8,-58.6L74.8,-58.6L76.9,-61.7Q77.7,-62.8 78.5,-62.8Q79.2,-62.8 80,-62Q83.8,-58.2 83.8,-57Q83.8,-56.3 83,-55.8L80.7,-54.1L80.7,-21.3Q80.7,-19.3 78.7,-19.3L77.5,-19.3Q75.5,-19.3 75.5,-21.3L75.5,-26.1L51.8,-26.1L51.8,5.2Q51.8,7.2 49.8,7.2Z"></path><path transform="translate(100 100)" d="M53.1,-63Q50.2,-63 49.7,-67.3Q48.8,-73.2 43.2,-79.4Q42.2,-80.5 43,-81.5Q43.5,-82.2 44.1,-82.2Q44.4,-82.2 44.9,-81.9Q56.1,-74.2 56.1,-68.1Q56.1,-63 53.1,-63ZM13.3,5.9Q12.7,4.7 13.9,4.2Q33.6,-3.6 48.3,-22Q37.5,-36.3 30.4,-59.2L16.7,-59.2Q15.3,-59.2 14.9,-60.5Q14.4,-61.7 15.7,-61.7L75.4,-61.7L78.9,-67Q79.6,-68.2 80.5,-68.2Q81.2,-68.2 82,-67.3Q83.1,-66 84.15,-64.7Q85.2,-63.4 86.2,-62Q86.8,-61.1 86.3,-60.2Q85.8,-59.2 84.7,-59.2L70.1,-59.2Q64.4,-36 54.5,-21.8Q66.2,-9.3 84.7,-1.9Q86.1,-1.4 86.3,-0.6Q86.5,0.2 85.7,1.5Q84.9,2.5 84.3,3.5Q83.7,4.7 82.7,4.7Q82.2,4.7 81.6,4.4Q62.8,-4.7 51.7,-17.6Q36.9,-0.2 15.1,6.6Q14.9,6.7 14.5,6.7Q13.7,6.7 13.3,5.9ZM51.1,-25.8Q60.1,-40 64.2,-59.2L33.6,-59.2Q40.5,-39.5 51.1,-25.8Z"></path><path transform="translate(200 100)" d="M20.9,6.2L19.9,6.2Q17.9,6.2 17.9,4.2L17.9,-74.2Q17.9,-76.4 19.2,-76.4Q19.6,-76.4 20.2,-76.15Q20.8,-75.9 21.5,-75.5Q22.2,-75.1 22.8,-74.75Q23.4,-74.4 23.8,-74.1L75.6,-74.1L77.6,-77Q78.3,-77.9 79.1,-77.9Q79.8,-77.9 80.5,-77.3Q84.3,-73.9 84.3,-72.3Q84.3,-71.6 83.5,-71L81.3,-69.4L81.3,-2.3Q81.3,6.1 72.6,6.1L72.5,6.1Q72.3,6.1 72.3,5.9Q72.2,3.3 70.4,2.3Q68.5,1.3 62.8,0.2Q61.5,-0 61.5,-1.4Q61.5,-2.7 62.8,-2.5Q68.8,-1.8 73.4,-1.8Q76.3,-1.8 76.3,-5.2L76.3,-71.6L22.9,-71.6L22.9,4.2Q22.9,6.2 20.9,6.2ZM25.1,-8.3Q24.4,-9.2 25,-10.2Q31.8,-22.3 36.8,-38.4Q32.5,-46.9 27.1,-54.2Q26.5,-55.2 27.2,-56.1Q27.5,-56.5 27.9,-56.5Q28.3,-56.5 28.7,-56.1Q31.2,-53.4 33.6,-50.25Q36,-47.1 38.5,-43.5Q40.8,-50.7 43.3,-62.3Q43.7,-63.9 44.9,-63.9Q45.4,-63.9 46.35,-63.55Q47.3,-63.2 48.25,-62.65Q49.2,-62.1 49.9,-61.4Q50.6,-60.7 50.6,-60.1Q50.6,-58.6 47.3,-58.6Q46.2,-53.6 44.8,-48.6Q43.4,-43.6 41.7,-38.4Q49.3,-26.1 49.3,-20.6L49.2,-19.6Q48.9,-16.9 47.2,-16.7Q47.1,-16.7 47,-16.8L46.5,-16.8Q45.1,-17.1 44.1,-21.4Q43.3,-24.9 39.6,-32.2Q37.1,-25.4 33.85,-19.45Q30.6,-13.5 26.5,-8.3Q26.2,-7.9 25.8,-7.9Q25.5,-7.9 25.1,-8.3ZM47.6,-6.2Q46.8,-6.9 47.4,-8Q51.4,-14.8 54.6,-22.2Q57.8,-29.6 60.2,-37.7Q56.3,-45.1 50.9,-52.6Q50.2,-53.5 50.9,-54.4Q51.3,-54.8 51.6,-54.8Q51.9,-54.8 52.3,-54.4Q58,-48.2 61.8,-42.6Q63.3,-47.6 64.55,-52.6Q65.8,-57.6 66.8,-62.8Q67.2,-64.5 68.4,-64.5Q68.9,-64.5 69.9,-64.05Q70.9,-63.6 71.9,-63Q72.9,-62.4 73.6,-61.7Q74.3,-61 74.3,-60.4Q74.3,-59 71,-59Q68.9,-48.7 65.2,-37.5Q73.5,-23.5 73.5,-17.9L73.5,-17Q73.1,-14.5 71.4,-14.3L71.1,-14.3L70.6,-14.4Q69.2,-14.8 68,-19.6Q67.5,-21.6 66.25,-24.5Q65,-27.4 63.1,-31.4Q57.7,-17.4 49.2,-6.2Q48.8,-5.7 48.4,-5.7Q48,-5.7 47.6,-6.2Z"></path><path transform="translate(300 100)" d="M52.1,-68.6Q49.9,-68.6 49.2,-71.8Q48.5,-76 43.8,-80.9Q42.9,-81.7 43.5,-82.6Q43.9,-83.2 44.4,-83.2Q44.7,-83.2 45.1,-83Q55.2,-77.1 55.2,-72.1Q55.2,-68.6 52.1,-68.6ZM43.7,4.4Q43.1,2.7 41,1.9Q38.3,0.8 32.5,-0.1Q31.1,-0.3 31.1,-1.7Q31.1,-3.1 32.5,-2.9Q36.2,-2.5 39.2,-2.3Q42.2,-2.1 44.6,-2.1Q48.1,-2.1 48.1,-5.4L48.1,-25L15.6,-25Q14.3,-25 13.8,-26.2L13.8,-26.3Q13.2,-27.5 14.7,-27.5L47.8,-27.5L47.8,-37.3Q47.8,-39.7 50.2,-39.3Q50.9,-39.1 51.5,-38.95Q52.1,-38.8 52.5,-38.7Q58.4,-43.9 62.9,-50.2L28.8,-50.2Q27.4,-50.2 27,-51.4L27,-51.5Q26.5,-52.7 27.8,-52.7L63.3,-52.7L65.2,-55.4Q66,-56.4 66.8,-56.4Q67.4,-56.4 68.3,-55.6Q72.6,-50.8 72.6,-49.7Q72.6,-48.9 71.3,-48.5L68.7,-47.7Q62.1,-41.9 55.3,-37.6Q56.3,-36.9 56.3,-36.3Q56.3,-35.4 52.8,-34.3L52.8,-27.5L76.6,-27.5L79.8,-32.3Q80.5,-33.5 81.4,-33.5Q82.1,-33.5 82.9,-32.6Q85.1,-30 86.5,-27.9Q87.2,-27 86.7,-26Q86.2,-25 85.1,-25L53.1,-25L53.1,-0.8Q53.1,5.5 46,6.1Q45,6.2 44.55,5.75Q44.1,5.3 43.7,4.4ZM15.9,-48.3Q12.7,-48.3 12.7,-51.9Q12.7,-53.3 14.5,-55.5Q18.7,-60.7 19.6,-71.1Q19.7,-72.1 20.6,-72.1Q21.8,-72.1 22,-70.9L22.3,-68.4L78.7,-68.4L80.6,-71.1Q81.4,-72.3 82.2,-72.3Q82.9,-72.3 83.7,-71.3Q88.1,-65.9 88.1,-64.6Q88.1,-63.7 86.9,-63.4L84,-62.8Q81.1,-59 76.1,-54.7Q75.7,-54.4 75.2,-54.4Q74.9,-54.4 74.4,-54.8Q73.6,-55.6 74.2,-56.6Q75.7,-59.1 76.9,-61.4Q78.1,-63.7 79,-65.9L22.3,-65.9L22.4,-64.7L22.5,-63.1Q22.5,-56.7 19.8,-51.7Q18,-48.3 15.9,-48.3Z"></path><path transform="translate(400 100)" d="M31,-59.6Q29.1,-59.6 28.2,-62.1Q25.4,-70.2 18.9,-75.9Q18,-76.7 18.6,-77.8Q19,-78.5 19.6,-78.5Q19.9,-78.5 20.2,-78.3Q34.3,-72 34.3,-63.9Q34.3,-59.6 31,-59.6ZM61.8,7.2L60.7,7.2Q58.7,7.2 58.7,5.2L58.7,-46.6L39.1,-46.6Q37.8,-46.6 37.4,-47.9Q36.9,-49.1 38.2,-49.1L58.7,-49.1L58.7,-77.9Q58.7,-79.9 60.5,-79.9Q61,-79.9 62.25,-79.8Q63.5,-79.7 64.8,-79.45Q66.1,-79.2 67.1,-78.7Q68.1,-78.2 68.1,-77.5Q68.1,-76.1 63.8,-74.4L63.8,-49.1L77.7,-49.1L80.8,-54.1Q81.6,-55.3 82.4,-55.3Q83.1,-55.3 83.9,-54.3Q84.7,-53.2 85.6,-52.05Q86.5,-50.9 87.4,-49.5Q88,-48.6 87.6,-47.7Q87.2,-46.6 86.1,-46.6L63.8,-46.6L63.8,5.2Q63.8,7.2 61.8,7.2ZM26.1,4.3Q25.3,4.3 22.5,-1.6Q21.9,-3 23.1,-4L24.6,-5.3L24.6,-44.7L14.1,-44.7Q12.7,-44.7 12.4,-45.9Q12,-47.2 13.3,-47.2L24,-47.2L25.7,-49.9Q26.4,-51 27.3,-51Q28,-51 28.8,-50.2Q32.5,-46.5 32.5,-45.4Q32.5,-44.6 31.7,-44L29.7,-42.4L29.7,-8Q33.5,-10.1 37,-12.2Q40.5,-14.3 43.7,-16.5Q44.1,-16.8 44.4,-16.8Q45,-16.8 45.3,-16L45.3,-15.9Q45.7,-14.6 44.7,-13.8Q36.9,-6.6 28.5,-0.2L27.3,2.9Q26.7,4.3 26.1,4.3Z"></path><path transform="translate(500 100)" d="M74.1,6.4L74,6.4Q73.8,6.4 73.8,6.2Q73.8,3.3 71.1,2Q70.2,1.6 68.6,1.15Q67,0.7 64.5,0.3Q63.2,0.1 63.2,-1.3Q63.2,-2.6 64.5,-2.4Q67.9,-2.1 70.4,-1.95Q72.9,-1.8 74.8,-1.8Q77.5,-1.8 77.5,-4.9L77.5,-79.2Q77.5,-81.2 79.2,-81.2Q79.8,-81.2 80.85,-81.05Q81.9,-80.9 83,-80.6Q84.1,-80.3 84.9,-79.8Q85.7,-79.3 85.7,-78.5Q85.7,-77.3 82.4,-76.1L82.4,-2.5Q82.4,6.4 74.1,6.4ZM62.7,-14.5L62,-14.5Q60,-14.5 60,-16.5L60,-69.1Q60,-71 61.8,-71Q62.3,-71 63.3,-70.9Q64.3,-70.8 65.35,-70.5Q66.4,-70.2 67.2,-69.75Q68,-69.3 68,-68.6Q68,-67.5 64.7,-66.1L64.7,-16.5Q64.7,-14.5 62.7,-14.5ZM45,-60.9Q43.2,-60.9 42.3,-64.3Q40.9,-70.2 36.1,-74.2Q35.3,-74.8 35.8,-75.7Q36.2,-76.3 36.7,-76.3Q37,-76.3 37.3,-76.2Q48,-71.5 48,-64.7Q48,-60.9 45,-60.9ZM12.1,4.9Q11.4,3.9 12.3,3.2Q18.8,-1.7 23.95,-7.05Q29.1,-12.4 33.1,-18.3Q30.6,-25.3 28.95,-33.2Q27.3,-41.1 26.4,-50.1L13.9,-48.6Q12.6,-48.5 12.1,-49.8Q11.6,-51 12.9,-51.1L26.2,-52.6Q25.7,-57.6 25.35,-64.05Q25,-70.5 24.9,-78.5Q24.8,-80.4 26.7,-80.4Q27.1,-80.4 28.2,-80.35Q29.3,-80.3 30.35,-80.05Q31.4,-79.8 32.25,-79.4Q33.1,-79 33.1,-78.2Q33.1,-77.2 29.9,-75.5Q30.1,-60.2 30.6,-54L30.6,-53.1L46.2,-54.8L48.1,-58.9Q48.8,-60.4 49.7,-60.4Q50.5,-60.4 51.3,-59.4Q52.2,-58.6 52.9,-57.75Q53.6,-56.9 54.3,-56.2Q55,-55.3 54.6,-54.3Q54.1,-53.3 53.1,-53.2L30.8,-50.6Q32.7,-33.2 36.4,-22.5Q39.2,-27 41.75,-32.15Q44.3,-37.3 46.6,-43.3Q47.1,-44.8 48.2,-44.8Q48.7,-44.8 49.7,-44.25Q50.7,-43.7 51.7,-42.9Q52.7,-42.1 53.4,-41.25Q54.1,-40.4 54.1,-39.9Q54.1,-38.5 50.3,-38.5Q43.1,-24.4 38.3,-17.7Q39.9,-14.2 41.55,-11.35Q43.2,-8.5 45,-6.3Q47.3,-3.2 48.3,-3.2Q50,-3.2 52.3,-22.4Q52.4,-23.2 52.9,-23.2Q53.1,-23.2 53.5,-22.9Q54.5,-22.3 54.4,-21.1Q54,-15 53.8,-11.3Q53.6,-7.6 53.6,-6.1Q53.6,-1.6 55,0.1Q55.4,0.7 55.75,1.25Q56.1,1.8 55.8,2.4Q55,5.2 52.2,5.2Q49.2,5.2 45,1.4Q39.8,-3.6 35.3,-13.3Q30.9,-7.9 25.6,-3.25Q20.3,1.4 13.8,5.2Q13.4,5.5 13.1,5.5Q12.5,5.5 12.1,4.9Z"></path><path transform="translate(600 100)" d=""></path><path transform="translate(633 100)" d="M56.6,-70.1L57.2,-54.6Q57.2,-53.3 55.7,-53Q55,-53 54.6,-54.3Q54,-58.6 52.7,-62.1Q50.3,-68.2 41,-68.2L34,-68.2L34,-11.6Q34,-6.7 36.3,-5.2Q37.7,-4.2 41.6,-3.9Q43,-3.6 43,-2.4Q43,-1.2 41.5,-1L20.6,-1Q19.3,-1 19.1,-2.5Q19.1,-3.7 20.5,-3.9Q24.3,-4.2 25.8,-5Q28.2,-6.2 28.2,-11.6L28.2,-68.2L21.8,-68.2Q12.8,-68.2 10.1,-62.6Q8.6,-59.4 7.9,-54.3Q7.6,-53 6.4,-53Q5.5,-53 5.4,-54.7L6.4,-70.1Q6.7,-71.5 7.9,-71.5L55.1,-71.5Q56.3,-71.5 56.6,-70.1Z"></path><path transform="translate(691 100)" d="M55.6,-2.4Q55.6,-1.2 54.1,-1L36.6,-1Q35.3,-1 35.1,-2.5Q35.1,-3.7 36.6,-3.8Q38.3,-4 39.8,-4.3Q42.5,-5.2 42.5,-10.1L42.5,-31.1Q42.5,-46.3 33.1,-46.2Q24,-46.2 20.1,-34.2L20.1,-10.1Q20.1,-5.6 22,-4.7Q23.5,-4 26,-3.8Q27.4,-3.8 27.5,-2.3Q27.5,-1.1 26,-1L8.5,-1Q7.2,-1 7,-2.5Q7,-3.7 8.5,-3.8Q10.5,-4 11.7,-4.4Q14.5,-5.3 14.5,-10.1L14.5,-62.3Q14.5,-66.8 12.5,-67.8Q11.6,-68.3 8.6,-68.4Q7.3,-68.4 7.1,-69.9L7.1,-70Q7.1,-71.4 8.6,-71.5Q13.6,-71.8 18.1,-72.6Q20.1,-72.7 20.1,-71L20.1,-40.8Q25.5,-50.5 34.3,-50.5Q48.1,-50.5 48.2,-32.5L48.2,-10.1Q48.2,-5.6 50.2,-4.7Q51.6,-4 54.1,-3.8Q55.5,-3.8 55.6,-2.4Z"></path><path transform="translate(748 100)" d="M15.3,-30.3L41.3,-30.3Q41,-39 37,-43.7Q33.6,-47.6 28.6,-47.6Q22.8,-47.6 18.7,-41.5Q15.9,-37.2 15.3,-30.3ZM47,-28.3L47,-27.4Q47,-26.7 45.5,-26.5L15,-26.5L15,-24.8Q15,-14.9 20.1,-8.8Q24.4,-3.8 30.5,-3.8Q38.8,-3.8 43.6,-12.2Q44.7,-13.9 46.2,-12.7Q46.8,-12.1 46.5,-11.1Q40.9,0.6 29.5,0.6Q20.7,0.6 14.8,-6.2Q9.1,-13.2 9.1,-24.9Q9.1,-37.4 15.2,-44.5Q20.5,-50.9 28.7,-50.9Q36.7,-50.9 41.6,-44.9Q47,-38.5 47,-28.3Z"></path><path transform="translate(800 100)" d=""></path><path transform="translate(833 100)" d="M23.9,-60.6L23.9,-36L32.1,-36Q51.8,-36 51.7,-52Q51.7,-68.2 34.1,-68.2L31.4,-68.2Q29.2,-68.2 27.3,-67.7Q23.9,-66.6 23.9,-60.6ZM9.3,-70L9.3,-70.1Q9.3,-71.3 10.8,-71.5L35.9,-71.5Q49.3,-71.5 54.7,-64.2Q58.4,-59.4 58.4,-52.6Q58.4,-32.2 34.6,-32.2L23.9,-32.2L23.9,-11.6Q23.9,-6.7 26.2,-5.2Q27.7,-4.2 31.6,-3.9Q33,-3.6 33,-2.4Q33,-1.2 31.5,-1L10.8,-1Q9.5,-1 9.3,-2.5Q9.3,-3.7 10.7,-3.9Q14,-4.2 15.4,-5Q18,-6.4 18,-11.6L18,-60.6Q18,-65.6 16.4,-66.8Q15,-68 10.7,-68.6Q9.3,-68.8 9.3,-70Z"></path><path transform="translate(893 100)" d="M19.3,-48.7L19.3,-38.1Q21.2,-43.6 25.2,-47.5Q28.8,-50.8 32.8,-50.8Q37.6,-50.8 37.7,-45.7Q37.7,-41.1 34.1,-41.1Q30.5,-41.1 30.5,-45.2Q30.5,-45.5 30.7,-46.6Q27.4,-46.3 23.9,-41.6Q21.1,-37.9 19.7,-32.3L19.7,-10.1Q19.7,-5.6 21.6,-4.7Q23.1,-4 25.9,-3.8Q27.3,-3.8 27.4,-2.3Q27.4,-1.1 25.9,-1L8,-1Q6.7,-1 6.5,-2.5Q6.5,-3.7 8,-3.8Q10,-4 11.2,-4.4Q14,-5.3 14,-10.1L14,-40Q14,-44.8 12,-45.6Q11,-46.1 8.1,-46.2Q6.8,-46.2 6.6,-47.7Q6.6,-49.1 8.1,-49.2Q13.2,-49.5 17.3,-50.3Q19.3,-50.5 19.3,-48.7Z"></path><path transform="translate(931 100)" d="M29.4,-47.7Q23.1,-47.7 19.3,-41.4Q15.6,-35.2 15.6,-25.3Q15.6,-14.8 19.6,-8.8Q23.4,-3.2 29.4,-3.2Q37.1,-3.2 40.5,-11Q43.3,-17.1 43.3,-25.2Q43.3,-35.9 39.3,-41.9Q35.6,-47.7 29.4,-47.7ZM29.4,-51.1Q37.8,-51.1 43.5,-44.4Q49.6,-37.2 49.6,-25.5Q49.6,-13.2 43.5,-6Q37.8,0.6 29.4,0.6Q21.2,0.6 15.4,-6Q9.3,-13.2 9.3,-25.3Q9.3,-37.3 15.5,-44.5Q21.2,-51.1 29.4,-51.1Z"></path><path transform="translate(985 100)" d="M15.3,-50.4Q17.3,-50.5 17.3,-48.8L17.3,2.9Q17.3,19.8 5.4,19.9Q1.5,19.9 -1.1,17.4Q-3.4,15.2 -3.4,12.5Q-3.4,7.7 0.6,7.7Q4.2,7.7 4.2,11.8Q4.2,14.6 1.9,15.5Q3.2,17.2 5.4,17.2Q11.9,17.2 11.8,3.8L11.8,-40Q11.8,-44.8 9.7,-45.6Q8.6,-46.1 5.9,-46.2Q4.6,-46.2 4.4,-47.7Q4.4,-49.1 6,-49.3Q11,-49.6 15.3,-50.4ZM14.6,-71.8Q16.4,-71.8 17.7,-70.3Q18.9,-68.8 18.9,-66.7Q18.9,-61.6 14.6,-61.7Q10.4,-61.7 10.3,-66.7Q10.3,-71.8 14.6,-71.8Z"></path><path transform="translate(1012 100)" d="M15.3,-30.3L41.3,-30.3Q41,-39 37,-43.7Q33.6,-47.6 28.6,-47.6Q22.8,-47.6 18.7,-41.5Q15.9,-37.2 15.3,-30.3ZM47,-28.3L47,-27.4Q47,-26.7 45.5,-26.5L15,-26.5L15,-24.8Q15,-14.9 20.1,-8.8Q24.4,-3.8 30.5,-3.8Q38.8,-3.8 43.6,-12.2Q44.7,-13.9 46.2,-12.7Q46.8,-12.1 46.5,-11.1Q40.9,0.6 29.5,0.6Q20.7,0.6 14.8,-6.2Q9.1,-13.2 9.1,-24.9Q9.1,-37.4 15.2,-44.5Q20.5,-50.9 28.7,-50.9Q36.7,-50.9 41.6,-44.9Q47,-38.5 47,-28.3Z"></path><path transform="translate(1064 100)" d="M45.2,-12.8Q45.9,-12.1 45.6,-11.2Q40,0.6 28.9,0.6Q20.4,0.6 14.8,-6.1Q9,-13.1 9,-24.8Q9,-37.1 15.2,-44.3Q20.7,-50.9 29.1,-50.9Q36.3,-50.9 41,-46.5Q44.7,-43.1 44.7,-39.2Q44.7,-34.1 40.8,-34.1Q37.1,-34.1 37,-38.2Q37,-41.1 39.1,-42.1Q36,-47.6 29.4,-47.6Q21.9,-47.6 18.3,-39.7Q15.3,-33.6 15.3,-25.3Q15.3,-16.2 19.3,-10.1Q23.3,-4 29.9,-4Q37.7,-4 42.6,-12.3Q43.7,-14 45.2,-12.8Z"></path><path transform="translate(1114 100)" d="M30.2,-6.3Q30.9,-5.5 30.3,-4.6Q26.1,1.2 20.8,1.2Q11.4,1.2 11.4,-11.4L11.4,-45.5L5.7,-45.5Q4.4,-45.5 4.2,-47L4.2,-47.2Q4.2,-48.4 5.6,-48.7Q9.7,-49.3 11.6,-52.4Q13.3,-55.3 14.2,-61.5Q14.5,-62.8 15.7,-62.8Q16.9,-62.8 17,-61.3L17,-49.2L28.1,-49.2Q29.5,-49.2 29.6,-47.7L29.6,-47Q29.6,-45.7 28.1,-45.5L17,-45.5L17,-13.3Q17,-3.1 22.3,-3.1Q25.3,-3.1 27.8,-6Q29.2,-7.4 30.2,-6.3Z"></path><path transform="translate(1145 100)" d=""></path><path transform="translate(1178 100)" d="M57.2,-70.1L58.1,-53.3Q58.1,-52 56.6,-51.7Q55.7,-51.7 55.5,-53.1Q55,-59.3 53.1,-63Q50.3,-68.3 38.6,-68.3L31.2,-68.3Q27.6,-68.3 25.7,-67.2Q23.8,-65.9 23.8,-60.8L23.8,-39L32.9,-39Q38.2,-39 39.7,-41.8Q41.1,-44.2 41.6,-48.1Q41.9,-49.4 43.1,-49.4Q44,-49.4 44.2,-47.9L44.2,-26.6Q44.2,-25.3 42.7,-25.1Q42,-25.1 41.7,-26.4Q41.3,-30.3 40.2,-32.3Q38.3,-35.6 32.9,-35.6L23.8,-35.6L23.8,-11.6Q23.8,-6.7 26.3,-5.2Q27.8,-4.2 31.7,-3.9Q33.1,-3.6 33.1,-2.4Q33.1,-1.2 31.6,-1L10.8,-1Q9.5,-1 9.3,-2.5Q9.3,-3.7 10.7,-3.9Q14,-4.2 15.4,-5Q18,-6.4 18,-11.6L18,-60.7Q18,-65.5 16.4,-66.8Q15,-68 10.7,-68.6Q9.3,-68.8 9.3,-70Q9.3,-71.4 10.8,-71.5L55.7,-71.5Q56.9,-71.5 57.2,-70.1Z"></path><path transform="translate(1237 100)" d="M29.4,-47.7Q23.1,-47.7 19.3,-41.4Q15.6,-35.2 15.6,-25.3Q15.6,-14.8 19.6,-8.8Q23.4,-3.2 29.4,-3.2Q37.1,-3.2 40.5,-11Q43.3,-17.1 43.3,-25.2Q43.3,-35.9 39.3,-41.9Q35.6,-47.7 29.4,-47.7ZM29.4,-51.1Q37.8,-51.1 43.5,-44.4Q49.6,-37.2 49.6,-25.5Q49.6,-13.2 43.5,-6Q37.8,0.6 29.4,0.6Q21.2,0.6 15.4,-6Q9.3,-13.2 9.3,-25.3Q9.3,-37.3 15.5,-44.5Q21.2,-51.1 29.4,-51.1Z"></path><path transform="translate(1291 100)" d="M19.3,-48.7L19.3,-38.1Q21.2,-43.6 25.2,-47.5Q28.8,-50.8 32.8,-50.8Q37.6,-50.8 37.7,-45.7Q37.7,-41.1 34.1,-41.1Q30.5,-41.1 30.5,-45.2Q30.5,-45.5 30.7,-46.6Q27.4,-46.3 23.9,-41.6Q21.1,-37.9 19.7,-32.3L19.7,-10.1Q19.7,-5.6 21.6,-4.7Q23.1,-4 25.9,-3.8Q27.3,-3.8 27.4,-2.3Q27.4,-1.1 25.9,-1L8,-1Q6.7,-1 6.5,-2.5Q6.5,-3.7 8,-3.8Q10,-4 11.2,-4.4Q14,-5.3 14,-10.1L14,-40Q14,-44.8 12,-45.6Q11,-46.1 8.1,-46.2Q6.8,-46.2 6.6,-47.7Q6.6,-49.1 8.1,-49.2Q13.2,-49.5 17.3,-50.3Q19.3,-50.5 19.3,-48.7Z"></path><path transform="translate(1329 100)" d=""></path><path transform="translate(1362 100)" d="M89.4,-70Q89.4,-68.8 88,-68.5Q86.8,-68.4 85.8,-68Q82.4,-66.9 80.7,-60.3L65.2,-0.5Q64.9,0.6 63.8,0.6L63.3,0.6Q62.3,0.6 61.9,-0.5L49.2,-51.2L48.9,-51.2L34.9,-0.4Q34.6,0.6 33.5,0.6L33,0.6Q32,0.6 31.6,-0.5L15.8,-59.8Q14,-66.5 11.1,-67.8Q10.1,-68.2 8.6,-68.5Q7.3,-68.7 7.3,-69.9L7.3,-70Q7.3,-71.4 8.8,-71.5L27.8,-71.5Q29.2,-71.5 29.3,-70Q29.3,-68.8 27.8,-68.6Q24.3,-68.5 23.1,-67.7Q21.4,-66.9 21.4,-64.3Q21.4,-62.4 22.3,-59.2L34.4,-12.4L34.6,-12.4L47.4,-58.4L46.9,-60.7Q45.5,-67 42.3,-68.1Q41.1,-68.4 39.5,-68.6Q38.1,-68.9 38.1,-70.1Q38.1,-71.3 39.6,-71.5L58.4,-71.5Q59.8,-71.5 59.9,-70Q59.9,-68.8 58.4,-68.6Q55.9,-68.6 54.9,-68.3Q52,-67.7 52,-64.5Q52,-63.2 52.7,-60L64.5,-12.9L64.7,-12.9L76.6,-60.3Q77.3,-63.2 77.3,-64.5Q77.3,-68.1 70.8,-68.6Q69.3,-68.9 69.3,-70.1Q69.3,-71.3 70.8,-71.5L87.9,-71.5Q89.3,-71.5 89.4,-70Z"></path><path transform="translate(1451 100)" d="M15.3,-30.3L41.3,-30.3Q41,-39 37,-43.7Q33.6,-47.6 28.6,-47.6Q22.8,-47.6 18.7,-41.5Q15.9,-37.2 15.3,-30.3ZM47,-28.3L47,-27.4Q47,-26.7 45.5,-26.5L15,-26.5L15,-24.8Q15,-14.9 20.1,-8.8Q24.4,-3.8 30.5,-3.8Q38.8,-3.8 43.6,-12.2Q44.7,-13.9 46.2,-12.7Q46.8,-12.1 46.5,-11.1Q40.9,0.6 29.5,0.6Q20.7,0.6 14.8,-6.2Q9.1,-13.2 9.1,-24.9Q9.1,-37.4 15.2,-44.5Q20.5,-50.9 28.7,-50.9Q36.7,-50.9 41.6,-44.9Q47,-38.5 47,-28.3Z"></path><path transform="translate(1503 100)" d="M18.3,-31.2L18.3,-18.2Q18.3,-12.1 23.8,-7.3Q27.6,-4.1 31.8,-4.1Q38.3,-4.1 41.9,-11.3Q44.7,-16.9 44.7,-25.3Q44.7,-36.6 39.7,-42.4Q36.2,-46.6 31.4,-46.6Q25.3,-46.6 21,-39.7Q18.3,-35.6 18.3,-31.2ZM18.3,-71L18.3,-40.7Q23.6,-50.7 32.6,-50.7Q39.7,-50.7 44.7,-44.8Q50.7,-37.7 50.7,-25.5Q50.7,-13.2 44.6,-6Q39.5,0.1 32.4,0.1Q23.7,0.1 18.5,-8.3L16,-1.1Q15.6,-0.2 14.7,-0.2L14.3,-0.2Q13,-0.2 12.8,-1.7L12.8,-62.3Q12.8,-67 10.9,-67.8Q10,-68.3 7,-68.4Q5.7,-68.4 5.5,-69.9L5.5,-70Q5.5,-71.4 7,-71.5Q12.1,-71.8 16.3,-72.6Q18.3,-72.7 18.3,-71Z"></path></svg>