<svg  xmlns="http://www.w3.org/2000/svg" xmlns:xlink="http://www.w3.org/1999/xlink" width="1045" height="200" viewBox="0 0 1069 224"><path transform="translate(0 100)" d="M8.20312,-62.0605L45.8008,-62.0605L45.8008,-83.3496L54.1992,-83.3496L54.1992,-62.0605L92.1875,-62.0605L92.1875,-17.5293L84.1797,-17.5293L84.1797,-22.8027L54.1992,-22.8027L54.1992,13.5254L45.8008,13.5254L45.8008,-22.8027L16.2109,-22.8027L16.2109,-17.5293L8.20312,-17.5293L8.20312,-62.0605ZM84.1797,-54.834L54.1992,-54.834L54.1992,-30.0293L84.1797,-30.0293L84.1797,-54.834ZM16.2109,-30.0293L45.8008,-30.0293L45.8008,-54.834L16.2109,-54.834L16.2109,-30.0293Z"></path><path transform="translate(100 100)" d="M3.02734,-66.2598L49.9023,-66.2598Q44.9707,-75.6348 42.1875,-79.9316L49.707,-83.4473Q52.4414,-79.248 57.9102,-69.7754L50.8789,-66.2598L96.7773,-66.2598L96.7773,-59.0332L78.7598,-59.0332Q73.5352,-31.1523 56.2988,-14.209Q69.2871,-4.73633 97.5586,2.7832Q93.0664,7.86133 90.7227,11.2793Q63.1836,1.75781 50.0488,-8.64258Q36.8652,1.61133 7.91016,12.0605Q5.37109,8.64258 2.05078,4.44336Q29.9805,-3.95508 44.0918,-14.2578Q26.2695,-33.3008 21.4355,-59.0332L3.02734,-59.0332L3.02734,-66.2598ZM70.4102,-59.0332L29.248,-59.0332Q33.6426,-35.0098 50.2441,-19.3359Q66.1133,-34.082 70.4102,-59.0332Z"></path><path transform="translate(200 100)" d="M16.7969,-56.8848L22.5586,-59.9121Q28.3691,-50.6836 34.1309,-41.0645Q38.8672,-51.2695 42.2852,-61.377L48.9258,-58.9355Q44.0918,-45.8008 38.2812,-33.9844Q43.8965,-24.4141 49.4141,-14.4043L42.7734,-10.8887Q38.7207,-18.6035 34.4238,-26.416Q28.418,-15.1367 21.4844,-5.12695L15.625,-8.49609L15.625,11.8652L8.30078,11.8652L8.30078,-77.3926L91.5039,-77.3926L91.5039,0.927734Q91.5039,11.377 80.2734,11.377Q74.0234,11.377 65.332,11.1816Q64.8438,8.05664 63.9648,3.56445Q72.168,4.24805 77.9297,4.24805Q84.1797,4.24805 84.1797,-1.12305L84.1797,-70.3613L15.625,-70.3613L15.625,-8.93555Q24.0234,-21.2891 30.4199,-33.5938Q23.9258,-45.166 16.7969,-56.8848ZM49.3164,-52.1973L54.9805,-55.5176Q59.8633,-47.6074 65.0879,-38.7695Q70.7031,-49.9512 74.6094,-60.791L81.25,-58.252Q75.7324,-44.3359 69.1895,-31.6895Q75.3418,-21.1426 81.9336,-9.32617L75.3906,-5.61523Q70.5078,-14.8926 65.2344,-24.3652Q59.1797,-13.5254 52.3438,-3.75977L46.3867,-7.56836Q54.7852,-19.7266 61.2305,-31.4941Q55.5176,-41.748 49.3164,-52.1973Z"></path><path transform="translate(300 100)" d="M1.95312,-25.4395L47.7539,-25.4395L47.7539,-31.5918L66.9922,-43.7012L19.7266,-43.7012L19.7266,-50.8301L78.9062,-50.8301L78.9062,-42.9199L55.7617,-28.0762L55.7617,-25.4395L98.4375,-25.4395L98.4375,-18.2129L55.7617,-18.2129L55.7617,-0.244141Q55.7617,12.1582 43.3594,12.1582Q38.3789,12.1582 28.8086,11.9629Q28.418,8.25195 27.6367,3.27148Q35.3516,4.3457 41.3086,4.3457Q47.7539,4.3457 47.7539,-2.58789L47.7539,-18.2129L1.95312,-18.2129L1.95312,-25.4395ZM5.66406,-68.5059L50.5859,-68.5059Q46.9727,-73.6328 41.8945,-79.7363L48.4375,-84.1309Q54.5898,-77.3926 58.5938,-71.6309L53.9551,-68.5059L95.1172,-68.5059L95.1172,-48.6816L87.207,-48.6816L87.207,-61.377L13.4766,-61.377L13.4766,-48.6816L5.66406,-48.6816L5.66406,-68.5059Z"></path><path transform="translate(400 100)" d="M32.8125,-49.2676L61.2305,-49.2676L61.2305,-82.8613L69.6289,-82.8613L69.6289,-49.2676L98.2422,-49.2676L98.2422,-42.2363L69.6289,-42.2363L69.6289,12.8418L61.2305,12.8418L61.2305,-42.2363L32.8125,-42.2363L32.8125,-49.2676ZM41.7969,-14.1113Q42.0898,-9.0332 42.4805,-5.61523Q26.8555,4.15039 16.6992,11.377L12.0117,4.73633Q15.4297,1.80664 15.4297,-4.15039L15.4297,-42.8223L1.5625,-42.8223L1.5625,-49.8535L23.2422,-49.8535L23.2422,-2.39258Q31.7383,-7.56836 41.7969,-14.1113ZM11.5234,-81.5918Q22.168,-70.6543 26.9531,-65.3809L20.1172,-59.6191Q13.9648,-67.7246 5.56641,-76.416L11.5234,-81.5918Z"></path><path transform="translate(500 100)" d="M1.17188,0.439453Q13.7695,-6.15234 24.1699,-15.2344Q20.2637,-26.4648 18.8965,-47.7051L4.00391,-45.0684L2.83203,-52.002L18.5059,-54.7363Q17.8711,-67.041 17.3828,-82.2754L25.1953,-82.2754Q25.4395,-67.8223 25.9277,-56.0059L57.6172,-61.5723L58.4961,-54.7363L26.2695,-49.0234Q27.3926,-30.8594 30.2246,-20.8008Q40.9668,-31.543 49.1211,-45.2637L55.6641,-41.1621Q45.5078,-25.1465 32.8125,-12.9883Q37.3535,-1.41602 44.5312,2.97852Q49.8047,6.10352 51.2695,0.146484Q52.5391,-6.5918 53.5156,-14.8926Q58.2031,-12.9395 61.2305,-12.0605Q59.375,-1.02539 57.8125,4.54102Q55.8594,12.3535 48.9258,12.3535Q43.457,12.3535 38.3789,8.54492Q31.543,2.7832 27.002,-7.71484Q17.5293,0.390625 6.73828,6.5918Q4.6875,4.05273 1.17188,0.439453ZM84.7656,-82.373L92.4805,-82.373L92.4805,-0.830078Q92.4805,11.377 81.1523,11.4746Q75.8789,11.5723 66.5039,11.377Q66.0156,6.88477 64.9414,3.07617Q72.168,3.75977 78.6133,3.85742Q84.7656,3.95508 84.7656,-2.68555L84.7656,-82.373ZM71.7773,-13.3301L64.2578,-13.3301L64.2578,-72.998L71.7773,-72.998L71.7773,-13.3301ZM31.25,-75.0488L35.7422,-79.834Q42.4805,-74.9512 48.9258,-69.3848L43.75,-63.8184Q38.4766,-69.1895 31.25,-75.0488Z"></path><path transform="translate(0 200)" d="M50.7812,-56.3965L31.8848,-56.3965L31.8848,-0L23.0957,-0L23.0957,-56.3965L4.19922,-56.3965L4.19922,-63.8184L50.7812,-63.8184L50.7812,-56.3965Z"></path><path transform="translate(55 200)" d="M47.2168,-0L38.7207,-0L38.7207,-31.2988Q38.7207,-36.9629 36.5967,-39.7705Q34.4727,-42.5781 30.5176,-42.5781Q28.8086,-42.5781 27.3193,-42.1143Q25.8301,-41.6504 24.2188,-40.5029Q22.6074,-39.3555 20.7031,-37.4023Q18.7988,-35.4492 16.3086,-32.5195L16.3086,-0L7.8125,-0L7.8125,-68.9941L16.3086,-68.9941L16.3086,-49.0234L16.0156,-41.3086Q18.0176,-43.7012 19.9463,-45.3369Q21.875,-46.9727 23.8037,-47.998Q25.7324,-49.0234 27.7344,-49.4629Q29.7363,-49.9023 31.8848,-49.9023Q39.209,-49.9023 43.2129,-45.4346Q47.2168,-40.9668 47.2168,-31.9824L47.2168,-0Z"></path><path transform="translate(110 200)" d="M49.2188,-27.0996Q49.2188,-25.293 49.1699,-24.0723Q49.1211,-22.8516 49.0234,-21.7773L14.5996,-21.7773Q14.5996,-14.2578 18.7988,-10.2295Q22.998,-6.20117 30.9082,-6.20117Q33.0566,-6.20117 35.2051,-6.37207Q37.3535,-6.54297 39.3555,-6.83594Q41.3574,-7.12891 43.1885,-7.49512Q45.0195,-7.86133 46.582,-8.30078L46.582,-1.31836Q43.1152,-0.341797 38.7451,0.268555Q34.375,0.878906 29.6875,0.878906Q23.3887,0.878906 18.8477,-0.830078Q14.3066,-2.53906 11.4014,-5.78613Q8.49609,-9.0332 7.10449,-13.7451Q5.71289,-18.457 5.71289,-24.4141Q5.71289,-29.5898 7.20215,-34.2041Q8.69141,-38.8184 11.5479,-42.3096Q14.4043,-45.8008 18.5547,-47.8516Q22.7051,-49.9023 27.9785,-49.9023Q33.1055,-49.9023 37.0605,-48.291Q41.0156,-46.6797 43.7256,-43.7256Q46.4355,-40.7715 47.8271,-36.5479Q49.2188,-32.3242 49.2188,-27.0996ZM40.3809,-28.3203Q40.5273,-31.5918 39.7461,-34.3018Q38.9648,-37.0117 37.3291,-38.9648Q35.6934,-40.918 33.252,-42.0166Q30.8105,-43.1152 27.5879,-43.1152Q24.8047,-43.1152 22.5098,-42.041Q20.2148,-40.9668 18.5547,-39.0137Q16.8945,-37.0605 15.8691,-34.3262Q14.8438,-31.5918 14.5996,-28.3203L40.3809,-28.3203Z"></path><path transform="translate(165 200)" d=""></path><path transform="translate(220 200)" d="M49.6094,-44.2871Q49.6094,-40.3809 48.1445,-36.5479Q46.6797,-32.7148 43.6035,-29.6875Q40.5273,-26.6602 35.7422,-24.7803Q30.957,-22.9004 24.3164,-22.9004L16.4062,-22.9004L16.4062,-0L7.71484,-0L7.71484,-63.8184L25.6836,-63.8184Q30.4199,-63.8184 34.7656,-62.7686Q39.1113,-61.7188 42.4072,-59.375Q45.7031,-57.0312 47.6562,-53.3203Q49.6094,-49.6094 49.6094,-44.2871ZM40.5762,-43.8965Q40.5762,-50.0488 36.5479,-53.3203Q32.5195,-56.5918 25.293,-56.5918L16.4062,-56.5918L16.4062,-30.3223L24.5117,-30.3223Q32.2266,-30.3223 36.4014,-33.6914Q40.5762,-37.0605 40.5762,-43.8965Z"></path><path transform="translate(275 200)" d="M9.81445,-49.0234L17.5781,-49.0234L17.8223,-39.9902Q22.168,-45.2148 26.3916,-47.5586Q30.6152,-49.9023 34.9121,-49.9023Q42.5293,-49.9023 46.46,-44.9707Q50.3906,-40.0391 50.0977,-30.3223L41.5039,-30.3223Q41.6504,-36.7676 39.624,-39.6729Q37.5977,-42.5781 33.6914,-42.5781Q31.9824,-42.5781 30.249,-41.9678Q28.5156,-41.3574 26.6846,-40.0146Q24.8535,-38.6719 22.8027,-36.5723Q20.752,-34.4727 18.4082,-31.4941L18.4082,-0L9.81445,-0L9.81445,-49.0234Z"></path><path transform="translate(330 200)" d="M50.4883,-24.9023Q50.4883,-19.1895 48.877,-14.4287Q47.2656,-9.66797 44.2383,-6.27441Q41.2109,-2.88086 36.8652,-1.00098Q32.5195,0.878906 27.002,0.878906Q21.7285,0.878906 17.5537,-0.756836Q13.3789,-2.39258 10.4736,-5.56641Q7.56836,-8.74023 6.03027,-13.4277Q4.49219,-18.1152 4.49219,-24.2188Q4.49219,-29.9316 6.10352,-34.6436Q7.71484,-39.3555 10.7422,-42.749Q13.7695,-46.1426 18.1152,-48.0225Q22.4609,-49.9023 27.9785,-49.9023Q33.252,-49.9023 37.4268,-48.2666Q41.6016,-46.6309 44.5068,-43.4814Q47.4121,-40.332 48.9502,-35.6445Q50.4883,-30.957 50.4883,-24.9023ZM41.7969,-24.5117Q41.7969,-29.0527 40.7959,-32.4463Q39.7949,-35.8398 37.9395,-38.1104Q36.084,-40.3809 33.4229,-41.5283Q30.7617,-42.6758 27.4902,-42.6758Q23.6816,-42.6758 20.9717,-41.1865Q18.2617,-39.6973 16.5283,-37.207Q14.7949,-34.7168 13.9893,-31.4209Q13.1836,-28.125 13.1836,-24.5117Q13.1836,-19.9707 14.1846,-16.5527Q15.1855,-13.1348 17.041,-10.8643Q18.8965,-8.59375 21.5332,-7.44629Q24.1699,-6.29883 27.4902,-6.29883Q31.2988,-6.29883 34.0088,-7.78809Q36.7188,-9.27734 38.4521,-11.7676Q40.1855,-14.2578 40.9912,-17.5537Q41.7969,-20.8496 41.7969,-24.5117Z"></path><path transform="translate(385 200)" d="M41.0156,-49.0234L41.0156,-0.878906Q41.0156,4.24805 39.5508,8.22754Q38.0859,12.207 35.3516,14.9414Q32.6172,17.6758 28.6377,19.0918Q24.6582,20.5078 19.6777,20.5078Q16.0645,20.5078 12.6221,19.8486Q9.17969,19.1895 6.39648,18.0176L6.39648,9.91211Q7.91016,10.6934 9.64355,11.3281Q11.377,11.9629 13.208,12.4023Q15.0391,12.8418 16.8945,13.0615Q18.75,13.2812 20.5078,13.2812Q26.0742,13.2812 29.248,9.76562Q32.4219,6.25 32.4219,-0.585938L32.4219,-41.9922L8.39844,-41.9922L8.39844,-49.0234L41.0156,-49.0234ZM35.8887,-69.5801Q37.3047,-69.5801 38.5254,-69.0674Q39.7461,-68.5547 40.6494,-67.627Q41.5527,-66.6992 42.0654,-65.4785Q42.5781,-64.2578 42.5781,-62.8906Q42.5781,-61.4746 42.0654,-60.2783Q41.5527,-59.082 40.6494,-58.1543Q39.7461,-57.2266 38.5254,-56.7139Q37.3047,-56.2012 35.8887,-56.2012Q34.4727,-56.2012 33.252,-56.7139Q32.0312,-57.2266 31.1279,-58.1543Q30.2246,-59.082 29.7119,-60.2783Q29.1992,-61.4746 29.1992,-62.8906Q29.1992,-64.2578 29.7119,-65.4785Q30.2246,-66.6992 31.1279,-67.627Q32.0312,-68.5547 33.252,-69.0674Q34.4727,-69.5801 35.8887,-69.5801Z"></path><path transform="translate(440 200)" d="M49.2188,-27.0996Q49.2188,-25.293 49.1699,-24.0723Q49.1211,-22.8516 49.0234,-21.7773L14.5996,-21.7773Q14.5996,-14.2578 18.7988,-10.2295Q22.998,-6.20117 30.9082,-6.20117Q33.0566,-6.20117 35.2051,-6.37207Q37.3535,-6.54297 39.3555,-6.83594Q41.3574,-7.12891 43.1885,-7.49512Q45.0195,-7.86133 46.582,-8.30078L46.582,-1.31836Q43.1152,-0.341797 38.7451,0.268555Q34.375,0.878906 29.6875,0.878906Q23.3887,0.878906 18.8477,-0.830078Q14.3066,-2.53906 11.4014,-5.78613Q8.49609,-9.0332 7.10449,-13.7451Q5.71289,-18.457 5.71289,-24.4141Q5.71289,-29.5898 7.20215,-34.2041Q8.69141,-38.8184 11.5479,-42.3096Q14.4043,-45.8008 18.5547,-47.8516Q22.7051,-49.9023 27.9785,-49.9023Q33.1055,-49.9023 37.0605,-48.291Q41.0156,-46.6797 43.7256,-43.7256Q46.4355,-40.7715 47.8271,-36.5479Q49.2188,-32.3242 49.2188,-27.0996ZM40.3809,-28.3203Q40.5273,-31.5918 39.7461,-34.3018Q38.9648,-37.0117 37.3291,-38.9648Q35.6934,-40.918 33.252,-42.0166Q30.8105,-43.1152 27.5879,-43.1152Q24.8047,-43.1152 22.5098,-42.041Q20.2148,-40.9668 18.5547,-39.0137Q16.8945,-37.0605 15.8691,-34.3262Q14.8438,-31.5918 14.5996,-28.3203L40.3809,-28.3203Z"></path><path transform="translate(495 200)" d="M45.8984,-1.80664Q42.5781,-0.537109 39.0869,0.0732422Q35.5957,0.683594 31.8848,0.683594Q20.2637,0.683594 13.9893,-5.61523Q7.71484,-11.9141 7.71484,-24.0234Q7.71484,-29.834 9.52148,-34.5703Q11.3281,-39.3066 14.5996,-42.6758Q17.8711,-46.0449 22.4121,-47.876Q26.9531,-49.707 32.4219,-49.707Q36.2305,-49.707 39.5508,-49.1699Q42.8711,-48.6328 45.8984,-47.4121L45.8984,-39.3066Q42.7246,-40.9668 39.4287,-41.7236Q36.1328,-42.4805 32.6172,-42.4805Q29.3457,-42.4805 26.4404,-41.2354Q23.5352,-39.9902 21.3379,-37.6465Q19.1406,-35.3027 17.8711,-31.9336Q16.6016,-28.5645 16.6016,-24.3164Q16.6016,-15.4297 20.9229,-11.0107Q25.2441,-6.5918 32.9102,-6.5918Q36.377,-6.5918 39.624,-7.37305Q42.8711,-8.1543 45.8984,-9.7168L45.8984,-1.80664Z"></path><path transform="translate(550 200)" d="M47.3145,-0.683594Q44.4336,0.0488281 41.3574,0.366211Q38.2812,0.683594 35.1074,0.683594Q25.8789,0.683594 21.3379,-3.49121Q16.7969,-7.66602 16.7969,-16.3086L16.7969,-41.8945L3.07617,-41.8945L3.07617,-49.0234L16.7969,-49.0234L16.7969,-62.5L25.293,-64.6973L25.293,-49.0234L47.3145,-49.0234L47.3145,-41.8945L25.293,-41.8945L25.293,-16.9922Q25.293,-11.7188 28.1006,-9.10645Q30.9082,-6.49414 36.377,-6.49414Q38.7207,-6.49414 41.5039,-6.86035Q44.2871,-7.22656 47.3145,-8.00781L47.3145,-0.683594Z"></path><path transform="translate(605 200)" d=""></path><path transform="translate(660 200)" d="M45.9961,-56.3965L18.8965,-56.3965L18.8965,-35.6934L44.5801,-35.6934L44.5801,-28.418L18.8965,-28.418L18.8965,-0L10.0098,-0L10.0098,-63.8184L45.9961,-63.8184L45.9961,-56.3965Z"></path><path transform="translate(715 200)" d="M50.4883,-24.9023Q50.4883,-19.1895 48.877,-14.4287Q47.2656,-9.66797 44.2383,-6.27441Q41.2109,-2.88086 36.8652,-1.00098Q32.5195,0.878906 27.002,0.878906Q21.7285,0.878906 17.5537,-0.756836Q13.3789,-2.39258 10.4736,-5.56641Q7.56836,-8.74023 6.03027,-13.4277Q4.49219,-18.1152 4.49219,-24.2188Q4.49219,-29.9316 6.10352,-34.6436Q7.71484,-39.3555 10.7422,-42.749Q13.7695,-46.1426 18.1152,-48.0225Q22.4609,-49.9023 27.9785,-49.9023Q33.252,-49.9023 37.4268,-48.2666Q41.6016,-46.6309 44.5068,-43.4814Q47.4121,-40.332 48.9502,-35.6445Q50.4883,-30.957 50.4883,-24.9023ZM41.7969,-24.5117Q41.7969,-29.0527 40.7959,-32.4463Q39.7949,-35.8398 37.9395,-38.1104Q36.084,-40.3809 33.4229,-41.5283Q30.7617,-42.6758 27.4902,-42.6758Q23.6816,-42.6758 20.9717,-41.1865Q18.2617,-39.6973 16.5283,-37.207Q14.7949,-34.7168 13.9893,-31.4209Q13.1836,-28.125 13.1836,-24.5117Q13.1836,-19.9707 14.1846,-16.5527Q15.1855,-13.1348 17.041,-10.8643Q18.8965,-8.59375 21.5332,-7.44629Q24.1699,-6.29883 27.4902,-6.29883Q31.2988,-6.29883 34.0088,-7.78809Q36.7188,-9.27734 38.4521,-11.7676Q40.1855,-14.2578 40.9912,-17.5537Q41.7969,-20.8496 41.7969,-24.5117Z"></path><path transform="translate(770 200)" d="M9.81445,-49.0234L17.5781,-49.0234L17.8223,-39.9902Q22.168,-45.2148 26.3916,-47.5586Q30.6152,-49.9023 34.9121,-49.9023Q42.5293,-49.9023 46.46,-44.9707Q50.3906,-40.0391 50.0977,-30.3223L41.5039,-30.3223Q41.6504,-36.7676 39.624,-39.6729Q37.5977,-42.5781 33.6914,-42.5781Q31.9824,-42.5781 30.249,-41.9678Q28.5156,-41.3574 26.6846,-40.0146Q24.8535,-38.6719 22.8027,-36.5723Q20.752,-34.4727 18.4082,-31.4941L18.4082,-0L9.81445,-0L9.81445,-49.0234Z"></path><path transform="translate(825 200)" d=""></path><path transform="translate(880 200)" d="M52.7832,-63.8184L48.4863,-0L37.207,-0L29.2969,-22.7051L27.0996,-29.9805L24.8047,-22.1191L17.4805,-0L6.5918,-0L2.19727,-63.8184L10.4004,-63.8184L12.8906,-20.4102L13.623,-8.49609L16.6992,-18.6035L24.4141,-42.2852L30.4199,-42.2852L39.3066,-16.8945L42.2852,-8.49609L42.4805,-17.2852L45.0195,-63.8184L52.7832,-63.8184Z"></path><path transform="translate(935 200)" d="M49.2188,-27.0996Q49.2188,-25.293 49.1699,-24.0723Q49.1211,-22.8516 49.0234,-21.7773L14.5996,-21.7773Q14.5996,-14.2578 18.7988,-10.2295Q22.998,-6.20117 30.9082,-6.20117Q33.0566,-6.20117 35.2051,-6.37207Q37.3535,-6.54297 39.3555,-6.83594Q41.3574,-7.12891 43.1885,-7.49512Q45.0195,-7.86133 46.582,-8.30078L46.582,-1.31836Q43.1152,-0.341797 38.7451,0.268555Q34.375,0.878906 29.6875,0.878906Q23.3887,0.878906 18.8477,-0.830078Q14.3066,-2.53906 11.4014,-5.78613Q8.49609,-9.0332 7.10449,-13.7451Q5.71289,-18.457 5.71289,-24.4141Q5.71289,-29.5898 7.20215,-34.2041Q8.69141,-38.8184 11.5479,-42.3096Q14.4043,-45.8008 18.5547,-47.8516Q22.7051,-49.9023 27.9785,-49.9023Q33.1055,-49.9023 37.0605,-48.291Q41.0156,-46.6797 43.7256,-43.7256Q46.4355,-40.7715 47.8271,-36.5479Q49.2188,-32.3242 49.2188,-27.0996ZM40.3809,-28.3203Q40.5273,-31.5918 39.7461,-34.3018Q38.9648,-37.0117 37.3291,-38.9648Q35.6934,-40.918 33.252,-42.0166Q30.8105,-43.1152 27.5879,-43.1152Q24.8047,-43.1152 22.5098,-42.041Q20.2148,-40.9668 18.5547,-39.0137Q16.8945,-37.0605 15.8691,-34.3262Q14.8438,-31.5918 14.5996,-28.3203L40.3809,-28.3203Z"></path><path transform="translate(990 200)" d="M49.707,-25.3906Q49.707,-19.2871 48.0225,-14.4775Q46.3379,-9.66797 43.2373,-6.32324Q40.1367,-2.97852 35.6934,-1.19629Q31.25,0.585938 25.6836,0.585938Q21.3379,0.585938 16.7969,-0.244141Q12.2559,-1.07422 7.8125,-2.88086L7.8125,-68.9941L16.3086,-68.9941L16.3086,-50L15.918,-40.918Q19.5801,-45.8496 23.7549,-47.876Q27.9297,-49.9023 32.7148,-49.9023Q36.9141,-49.9023 40.0879,-48.1445Q43.2617,-46.3867 45.4102,-43.1885Q47.5586,-39.9902 48.6328,-35.4736Q49.707,-30.957 49.707,-25.3906ZM41.0156,-25Q41.0156,-28.8574 40.4541,-32.0801Q39.8926,-35.3027 38.6719,-37.5977Q37.4512,-39.8926 35.5469,-41.1865Q33.6426,-42.4805 31.0059,-42.4805Q29.3945,-42.4805 27.7344,-41.9678Q26.0742,-41.4551 24.292,-40.2588Q22.5098,-39.0625 20.5322,-37.085Q18.5547,-35.1074 16.3086,-32.1777L16.3086,-8.39844Q18.7988,-7.42188 21.3867,-6.86035Q23.9746,-6.29883 26.3184,-6.29883Q29.248,-6.29883 31.9092,-7.22656Q34.5703,-8.1543 36.5967,-10.3271Q38.623,-12.5 39.8193,-16.0889Q41.0156,-19.6777 41.0156,-25Z"></path></svg>