<svg  xmlns="http://www.w3.org/2000/svg" xmlns:xlink="http://www.w3.org/1999/xlink" width="904" height="200" viewBox="0 0 928 224"><path transform="translate(0 100)" d="M47.5,-58.6L23.2,-55.9Q21.7,-59.9 18.9,-64.3L18.2,-63.3Q19.5,-55.3 19.5,-50.2L19.5,-38.7Q19.6,-36.1 19.6,-32.8Q19.6,-29.5 18.4,-27Q19.1,-24.6 20.05,-22.15Q21,-19.7 22.5,-19.5Q23.2,-20.4 23.2,-27.7Q35.7,-29.2 47.5,-30.5L47.5,-8.2Q47.9,0.5 45.7,4.8Q46.8,7.5 48.1,9.85Q49.4,12.2 50,12.4Q50.7,12.1 50.95,8.3Q51.2,4.5 51.2,-0.4L51.2,-30.9Q63.5,-32 83.2,-33.6L79.1,-36.9L81.6,-57.6Q82,-59.7 83.25,-60.35Q84.5,-61 85.4,-61.5L79.5,-67.4L76,-61.9L51.2,-59L51.2,-71.7Q50.9,-77.1 52.3,-80.1L45.3,-85.5L44.3,-84.4Q47.4,-78.9 47.5,-71.7L47.5,-58.6ZM23.2,-52.3L47.5,-55.1L47.5,-33.6Q33.6,-32 23.2,-31.1L23.2,-52.3ZM51.2,-55.5L77.7,-58.8L74.8,-36.5Q66,-35.5 51.2,-34L51.2,-55.5Z"></path><path transform="translate(100 100)" d="M51.8,-64.5Q53.9,-68.6 55.3,-72.7Q48.6,-79.1 42,-84.2L41,-83.6Q47.7,-74.1 51.8,-64.5ZM50.2,-22.3Q62.7,-7.7 73.4,6L93.8,2.1L93.8,0.3Q89.3,0.5 82,-0.55Q74.7,-1.6 68.8,-7Q64.6,-10.6 52.1,-24.8Q60.5,-37.8 63.5,-47.7Q63.8,-50.4 66.2,-52L60.7,-56.6Q66.7,-56.9 74,-57.75Q81.3,-58.6 88.3,-59.2L82,-62.9Q80.8,-61.2 63.25,-59.75Q45.7,-58.3 12.9,-55.3L18.4,-51.6Q19,-53.1 29.65,-53.95Q40.3,-54.8 59.2,-56.4Q59.8,-51.5 58.6,-46.5Q56.1,-36.8 50,-27.7Q44.5,-33.7 38.5,-42.4Q37.1,-44 38.1,-46.7L29.9,-46.5L29.9,-45.3Q31.1,-45.3 34.4,-41.8Q40.8,-33.9 47.7,-24.8Q34.8,-6.9 7,8.3L7.4,9.5Q19.3,4.5 30.4,-3.7Q41.5,-11.9 50.2,-22.3Z"></path><path transform="translate(200 100)" d="M20.5,11.8Q21,11.5 21.25,7.65Q21.5,3.8 21.5,-1L21.5,-67.8Q50,-69.6 77.3,-72.5L77.3,-4.7Q77.3,0.5 76.8,1.7L62.1,-6.4L61.1,-5.1Q70.1,2.1 78.5,11.8Q80.7,6.3 80.9,-3.9L80.9,-69.9Q81.5,-73.5 84,-74.8L79.3,-79.5L76.2,-75.6Q48.2,-72.9 21.5,-70.9Q20.4,-73.3 17.4,-79.3L16.2,-78.3Q16.9,-74.8 17.4,-70.55Q17.9,-66.3 18,-59.6L18,-8.8Q18.4,-0.4 16.2,4.2Q17.1,6.8 18.35,9.2Q19.6,11.6 20.5,11.8ZM43.8,-16Q45.9,-19.8 47.3,-24.2Q44.2,-31.1 40.6,-37.1Q43.4,-44.1 45.3,-49.8Q45.8,-52.3 47.9,-53.7L43,-61.3L41.6,-60.9Q41.9,-58.7 41.6,-55.9Q40.2,-47.7 38.1,-41.2Q33.8,-48.4 28.9,-55.5L27.7,-54.5Q32.4,-45.2 36.3,-36.5Q31.6,-24.9 24.4,-13.7L25.6,-13.1Q33.2,-22.2 38.3,-32.4Q41.4,-24.8 43.8,-16ZM68.2,-16Q70.3,-19.6 71.9,-23.6Q70.3,-27 67.85,-31.15Q65.4,-35.3 63.3,-38.7Q66.1,-45 68.8,-52Q69.5,-54.6 71.9,-55.9L66.8,-63.9L65.6,-63.5Q65.2,-52.4 60.7,-42.4Q56.3,-49.8 51.2,-57.6L50,-56.6Q54.7,-47.1 59.2,-37.9Q54,-26 46.5,-13.9L47.9,-13.3Q56,-23.7 61.1,-34Q62.9,-30.3 64.9,-25Q66.9,-19.7 68.2,-16Z"></path><path transform="translate(300 100)" d="M21.5,-71.1L20.1,-71.1Q20.6,-56.8 14.5,-50.2L18.2,-44.1Q22.7,-51.2 22.5,-59.8L80.3,-65L74.8,-53.5L75.8,-52.3Q81.8,-61.3 89.1,-66.8L83.2,-72.1L80.3,-68L22.5,-62.9Q22.1,-68.3 21.5,-71.1ZM53.3,-66.6Q55.5,-70 56.8,-74.4Q50.7,-80.7 46.1,-84L45.1,-83.2Q47.5,-79.9 49.8,-75.3Q52.1,-70.7 53.3,-66.6ZM51.4,-25.2Q52.4,-20.8 52.3,-16.2L52.3,-10Q52.4,-6.9 52.35,-1.65Q52.3,3.6 49.8,3L35,-4.1L34,-2.7Q43,3.6 51.2,11Q56,1.6 55.9,-9.6L55.9,-15.8Q55.9,-21 55.1,-25.6Q70.6,-26.9 93.2,-28.7L86.9,-33Q83.7,-30.4 54.5,-28.1Q53.7,-30.7 52.7,-32.4Q60.8,-40.6 68.2,-47.7Q69.7,-49.7 73.4,-51L67.8,-56.8L64.5,-52.9Q44.6,-51.2 25.8,-48.6L30.7,-45.1Q30.9,-45.8 34,-46.5Q46.9,-48.1 64.5,-49.8L52,-34.2Q49.7,-38.3 46.1,-41.8L44.5,-40.8Q48.3,-35.5 50.8,-27.7Q34.3,-26.9 9.6,-24.6L15,-20.7Q17.5,-22.7 51.4,-25.2Z"></path><path transform="translate(400 100)" d="M30.9,-57.4Q32.6,-62 33.6,-66.4Q25.6,-72.7 18.2,-77.7L17,-77Q24.3,-68.2 30.9,-57.4ZM22.7,0.1L26.2,4.2Q28.3,-0.1 35.15,-8.65Q42,-17.2 47.7,-25L46.5,-25.8Q42,-20.8 36.6,-15.25Q31.2,-9.7 27.7,-6.3L28.3,-43.6L32.4,-46.3L27.7,-52Q26.5,-50.6 24.6,-47.9Q18.8,-47 14.6,-46.55Q10.4,-46.1 4.9,-45.7L9.4,-42.2Q10.5,-42.9 15.45,-43.75Q20.4,-44.6 25,-45.1L24.4,-10.7Q24.1,-4.6 22.7,0.1ZM35.4,-41.8L41.2,-38.3Q44.2,-40.3 61.1,-41.8L61.1,-6.4Q61.5,3.8 59.6,6.3Q60.7,9 62.25,11.35Q63.8,13.7 63.9,13.6Q64.3,13.7 64.5,10Q64.7,6.3 64.8,1.1L64.8,-42.4Q76,-43.7 92.2,-46.5L85.9,-50.2Q83.6,-47.5 64.8,-45.3L64.8,-72.1Q64.6,-77.5 66,-80.5L60,-85.9L59,-84.8Q61,-77.1 61.1,-69.9L61.1,-44.9Q49.7,-43.1 35.4,-41.8Z"></path><path transform="translate(500 100)" d="M78.7,-84.4L77.7,-83.8Q81,-72.9 80.5,-67.8L80.5,-3.1Q80.3,1.4 79.9,3.8L67.8,-2.3L66.6,-1Q74.9,5.1 82.4,13.2Q84.2,5.8 84,-1.8L84,-68Q83.9,-73.1 85.9,-77.5L78.7,-84.4ZM68.8,-18.8Q69.1,-18.8 69.45,-21.75Q69.8,-24.7 69.9,-28.7L69.9,-51.2Q69.6,-56.7 70.9,-59.8L65.2,-65L64.1,-64.1Q65.9,-59.7 66,-51.2L66,-34.8Q66.3,-28.6 64.8,-25.2Q65.6,-22.9 66.9,-20.85Q68.2,-18.8 68.8,-18.8ZM21.7,-81.8L21.1,-80.5Q23.7,-76.3 24,-70.9Q25,-62.4 27.5,-47.3Q18.5,-44.6 8.2,-41.8L13.7,-38.9Q15.2,-40.7 27.9,-44.1Q29.7,-34.6 33,-23.6Q21.1,-14 5.5,-5.3L6.6,-4.3Q21.9,-11.1 34.6,-20.1Q39.8,-4.2 53.1,5.4Q55.8,7.6 60.2,9.1Q58,-3.6 57.4,-15.8L55.9,-15.8Q55.8,-6.5 55.7,0.7Q43.6,-6.2 37.7,-22.9Q43.2,-26.8 48.4,-31.6Q50.2,-33 53.5,-34.2L50.6,-42.8L49.4,-42.4Q49.6,-39.7 46.1,-35.4Q41.4,-30.3 36.5,-25.8Q32.8,-36.1 31.8,-45.1Q44,-48.4 57.4,-52.3L51.4,-55.5Q50.6,-54.1 44.95,-52.15Q39.3,-50.2 31.1,-48Q29.2,-60 28.5,-67.2Q28,-73.6 29.7,-76.6L21.7,-81.8ZM51,-61.1Q51.8,-64.7 52,-68.8Q45.7,-72.4 38.1,-74.6L37.1,-73.6Q43.8,-68.8 51,-61.1Z"></path><path transform="translate(0 200)" d="M44.5,-70.3L0.2,-70.3L0.2,-66.6L19.7,-66.6L19.7,-1.4L24.6,-1.4L24.6,-66.6L44.5,-66.6L44.5,-70.3Z"></path><path transform="translate(45 200)" d="M12.9,-1.4L12.9,-27Q13.2,-34.3 15.5,-38.4Q17.8,-42.5 18.2,-42.6Q21.5,-47 25.1,-48.25Q28.7,-49.5 29.1,-49.4Q35,-48.1 36.45,-41.15Q37.9,-34.2 37.7,-33.2L37.7,-1.4L42.2,-1.4L42.2,-38.5Q40.8,-47.9 35.7,-50.65Q30.6,-53.4 29.9,-53.1Q21.9,-52.1 17.6,-47Q13.3,-41.9 13.3,-41.2L12.9,-41.2L12.9,-72.3L8.4,-72.3L8.4,-1.4L12.9,-1.4Z"></path><path transform="translate(93 200)" d="M40.8,-29.9L10.4,-29.9Q12,-42.9 17.5,-46.25Q23,-49.6 26.6,-49.2Q31.3,-49 34.2,-46.15Q37.1,-43.3 38.5,-39.5Q39.9,-35.7 40.35,-32.85Q40.8,-30 40.8,-29.9ZM44.1,-4.7L42.2,-9Q35.5,-5.5 31.1,-4.7Q26.7,-3.9 26.6,-4.1Q20.3,-4.1 16.95,-7.3Q13.6,-10.5 12.15,-14.9Q10.7,-19.3 10.5,-22.65Q10.3,-26 10.4,-26.2L44.9,-26.2Q44.1,-44.4 37,-49.1Q29.9,-53.8 25.8,-53.1Q19.4,-52.7 15.75,-49.65Q12.1,-46.6 11.7,-45.5Q7.4,-39.5 6.55,-33.3Q5.7,-27.1 5.9,-26.6Q6.1,-17.2 8.85,-11.9Q11.6,-6.6 15.35,-4.3Q19.1,-2 22.2,-1.45Q25.3,-0.9 26.2,-1Q32.1,-1.2 37.9,-2.8Q43.7,-4.4 44.1,-4.7Z"></path><path transform="translate(143 200)" d=""></path><path transform="translate(193 200)" d="M14.1,-66.6L25.4,-66.6Q35.1,-65.2 37.35,-58Q39.6,-50.8 39.3,-49.8Q37.9,-37.8 30.45,-35.2Q23,-32.6 22.1,-33.2L14.1,-33.2L14.1,-66.6ZM14.1,-29.5L22.1,-29.5Q31,-29.4 37.4,-34.55Q43.8,-39.7 44.1,-50.2Q43.2,-63.6 35.75,-67.15Q28.3,-70.7 25.4,-70.3L9.6,-70.3L9.6,-1.4L14.1,-1.4L14.1,-29.5Z"></path><path transform="translate(242 200)" d="M13.9,-1.4L13.9,-22.1Q14.2,-30.9 16.65,-36.25Q19.1,-41.6 19.5,-41.8Q23.5,-46.7 26.5,-48.1Q29.5,-49.5 30.5,-49.4Q35.2,-48.6 36.25,-43.5Q37.3,-38.4 37.1,-37.7L41.6,-37.7Q40.3,-48.4 35.8,-50.95Q31.3,-53.5 30.7,-53.1Q23,-52.1 18.3,-45.75Q13.6,-39.4 13.5,-38.5L11.7,-52.7L7.4,-52.7L9,-36.3L9,-1.4L13.9,-1.4Z"></path><path transform="translate(284 200)" d="M25.4,-4.1Q19.7,-4.2 16.55,-7.3Q13.4,-10.4 12,-14.7Q10.6,-19 10.35,-22.5Q10.1,-26 10.2,-27Q10.7,-41.8 16.4,-45.85Q22.1,-49.9 25.8,-49.4Q30.8,-49.2 33.75,-45.95Q36.7,-42.7 38.15,-38.4Q39.6,-34.1 40,-30.6Q40.4,-27.1 40.4,-26.6Q39.6,-10.4 33.5,-6.85Q27.4,-3.3 25.4,-4.1ZM25.4,-53.1Q16.4,-52.8 11.2,-45.6Q6,-38.4 5.9,-27Q5.5,-18.3 9.5,-9.95Q13.5,-1.6 25.4,-1Q32,-1.1 35.9,-4.2Q39.8,-7.3 41.65,-11.8Q43.5,-16.3 44,-20.45Q44.5,-24.6 44.5,-27Q43.8,-44 36.9,-48.8Q30,-53.6 25.4,-53.1Z"></path><path transform="translate(334 200)" d="M4.5,-4.1L0.4,-4.1Q0.6,1.6 2.2,5.25Q3.8,8.9 4.1,9.1Q6.9,12 10.2,12.85Q13.5,13.7 14.6,13.6Q22.3,13.3 26.35,8.95Q30.4,4.6 30.5,-1.4L30.5,-52L10.9,-52L10.9,-48.2L26,-48.2L26,-1.4Q25.4,5.5 21.2,7.75Q17,10 15,9.9Q7.1,9 5.6,2.9Q4.1,-3.2 4.5,-4.1ZM27.7,-71.5Q24,-71.1 23.25,-69Q22.5,-66.9 22.7,-66.6Q23,-63.1 25.1,-62.3Q27.2,-61.5 27.7,-61.7Q30.9,-62.1 31.8,-63.75Q32.7,-65.4 32.6,-66.6Q32.4,-69.5 30.7,-70.5Q29,-71.5 27.7,-71.5Z"></path><path transform="translate(373 200)" d="M40.8,-29.9L10.4,-29.9Q12,-42.9 17.5,-46.25Q23,-49.6 26.6,-49.2Q31.3,-49 34.2,-46.15Q37.1,-43.3 38.5,-39.5Q39.9,-35.7 40.35,-32.85Q40.8,-30 40.8,-29.9ZM44.1,-4.7L42.2,-9Q35.5,-5.5 31.1,-4.7Q26.7,-3.9 26.6,-4.1Q20.3,-4.1 16.95,-7.3Q13.6,-10.5 12.15,-14.9Q10.7,-19.3 10.5,-22.65Q10.3,-26 10.4,-26.2L44.9,-26.2Q44.1,-44.4 37,-49.1Q29.9,-53.8 25.8,-53.1Q19.4,-52.7 15.75,-49.65Q12.1,-46.6 11.7,-45.5Q7.4,-39.5 6.55,-33.3Q5.7,-27.1 5.9,-26.6Q6.1,-17.2 8.85,-11.9Q11.6,-6.6 15.35,-4.3Q19.1,-2 22.2,-1.45Q25.3,-0.9 26.2,-1Q32.1,-1.2 37.9,-2.8Q43.7,-4.4 44.1,-4.7Z"></path><path transform="translate(423 200)" d="M6.8,-26.2Q6.6,-18.2 11,-9.9Q15.4,-1.6 27.3,-1Q35.4,-1.5 40,-4.95Q44.6,-8.4 44.7,-9L41.8,-11.9Q36.4,-6.3 32.15,-5.05Q27.9,-3.8 27.7,-4.1Q21.6,-4.4 18.2,-7.6Q14.8,-10.8 13.3,-15.05Q11.8,-19.3 11.5,-22.75Q11.2,-26.2 11.3,-27Q11.4,-35.1 13.75,-39.7Q16.1,-44.3 19.25,-46.35Q22.4,-48.4 24.85,-48.9Q27.3,-49.4 27.7,-49.4Q33.8,-48.5 37.35,-44.7Q40.9,-40.9 41,-40.4L45.1,-43Q39.3,-50 33.8,-51.65Q28.3,-53.3 27.7,-53.1Q18.2,-52.8 12.5,-45.25Q6.8,-37.7 6.8,-26.2Z"></path><path transform="translate(474 200)" d="M16.8,-52L16.8,-68.6L12.7,-68.6L12.7,-52L1,-52L1,-48.2L12.7,-48.2L12.7,-16.4Q12.5,-10.3 13.55,-7.65Q14.6,-5 14.8,-5.1Q17.2,-2.1 20.95,-1.45Q24.7,-0.8 25.4,-1Q33.5,-1.9 37.35,-6.55Q41.2,-11.2 41.2,-11.9L37.1,-13.1Q33.4,-6.5 29.35,-5.15Q25.3,-3.8 25,-4.1Q19,-4.7 17.75,-8.85Q16.5,-13 16.8,-13.7L16.8,-48.2L35.5,-48.2L35.5,-52L16.8,-52Z"></path><path transform="translate(515 200)" d=""></path><path transform="translate(565 200)" d="M44.7,-70.3L9.4,-70.3L9.4,-1.4L13.9,-1.4L13.9,-35.5L36.9,-35.5L36.9,-39.3L13.9,-39.3L13.9,-66.6L44.7,-66.6L44.7,-70.3Z"></path><path transform="translate(613 200)" d="M25.4,-4.1Q19.7,-4.2 16.55,-7.3Q13.4,-10.4 12,-14.7Q10.6,-19 10.35,-22.5Q10.1,-26 10.2,-27Q10.7,-41.8 16.4,-45.85Q22.1,-49.9 25.8,-49.4Q30.8,-49.2 33.75,-45.95Q36.7,-42.7 38.15,-38.4Q39.6,-34.1 40,-30.6Q40.4,-27.1 40.4,-26.6Q39.6,-10.4 33.5,-6.85Q27.4,-3.3 25.4,-4.1ZM25.4,-53.1Q16.4,-52.8 11.2,-45.6Q6,-38.4 5.9,-27Q5.5,-18.3 9.5,-9.95Q13.5,-1.6 25.4,-1Q32,-1.1 35.9,-4.2Q39.8,-7.3 41.65,-11.8Q43.5,-16.3 44,-20.45Q44.5,-24.6 44.5,-27Q43.8,-44 36.9,-48.8Q30,-53.6 25.4,-53.1Z"></path><path transform="translate(663 200)" d="M13.9,-1.4L13.9,-22.1Q14.2,-30.9 16.65,-36.25Q19.1,-41.6 19.5,-41.8Q23.5,-46.7 26.5,-48.1Q29.5,-49.5 30.5,-49.4Q35.2,-48.6 36.25,-43.5Q37.3,-38.4 37.1,-37.7L41.6,-37.7Q40.3,-48.4 35.8,-50.95Q31.3,-53.5 30.7,-53.1Q23,-52.1 18.3,-45.75Q13.6,-39.4 13.5,-38.5L11.7,-52.7L7.4,-52.7L9,-36.3L9,-1.4L13.9,-1.4Z"></path><path transform="translate(705 200)" d=""></path><path transform="translate(755 200)" d="M36.5,-8.6L24.6,-47.1L12.7,-8.6L12.3,-8.6L8.4,-70.3L3.3,-70.3L8.4,-1.4L14.8,-1.4L24.6,-35.2L34.8,-1.4L40.8,-1.4L45.9,-70.3L40.8,-70.3L36.5,-8.6Z"></path><path transform="translate(803 200)" d="M40.8,-29.9L10.4,-29.9Q12,-42.9 17.5,-46.25Q23,-49.6 26.6,-49.2Q31.3,-49 34.2,-46.15Q37.1,-43.3 38.5,-39.5Q39.9,-35.7 40.35,-32.85Q40.8,-30 40.8,-29.9ZM44.1,-4.7L42.2,-9Q35.5,-5.5 31.1,-4.7Q26.7,-3.9 26.6,-4.1Q20.3,-4.1 16.95,-7.3Q13.6,-10.5 12.15,-14.9Q10.7,-19.3 10.5,-22.65Q10.3,-26 10.4,-26.2L44.9,-26.2Q44.1,-44.4 37,-49.1Q29.9,-53.8 25.8,-53.1Q19.4,-52.7 15.75,-49.65Q12.1,-46.6 11.7,-45.5Q7.4,-39.5 6.55,-33.3Q5.7,-27.1 5.9,-26.6Q6.1,-17.2 8.85,-11.9Q11.6,-6.6 15.35,-4.3Q19.1,-2 22.2,-1.45Q25.3,-0.9 26.2,-1Q32.1,-1.2 37.9,-2.8Q43.7,-4.4 44.1,-4.7Z"></path><path transform="translate(853 200)" d="M14.3,-14.5L14.3,-44.1Q18.3,-47.7 21.65,-48.55Q25,-49.4 26.2,-49.2Q31.7,-48.2 34.95,-44.8Q38.2,-41.4 39.7,-37.3Q41.2,-33.2 41.6,-30.15Q42,-27.1 42,-27Q41.8,-19.2 40.5,-15.35Q39.2,-11.5 39.1,-11.5Q34.8,-6.2 30.95,-5Q27.1,-3.8 27,-4.1Q20.7,-4.5 17.5,-9.15Q14.3,-13.8 14.3,-14.5ZM9.8,-72.3L9.8,-18.9Q9.6,-11.4 8.55,-6.45Q7.5,-1.5 7.4,-1.4L11.7,-1L13.5,-8.6Q16.7,-3.3 21.55,-2Q26.4,-0.7 27,-1Q35.1,-1.8 38.95,-5.6Q42.8,-9.4 42.8,-10Q45.4,-14.9 46,-20.85Q46.6,-26.8 46.5,-27.3Q46,-35.9 43.2,-41.1Q40.4,-46.3 36.75,-48.9Q33.1,-51.5 30.15,-52.3Q27.2,-53.1 26.6,-53.1Q20.9,-52.5 17.6,-50.65Q14.3,-48.8 14.3,-48.6L14.3,-72.3L9.8,-72.3Z"></path></svg>