<svg  xmlns="http://www.w3.org/2000/svg" xmlns:xlink="http://www.w3.org/1999/xlink" width="950" height="200" viewBox="0 0 974 224"><path transform="translate(0 100)" d="M52.1,7.8L51.5,7.8L49.5,6.8Q48.5,5.7 48.3,4.1L47.9,-23.5L19.5,-23.3Q15.9,-23.4 15.3,-25.15Q14.7,-26.9 13.1,-58Q13.1,-60.4 14.8,-60.9Q16,-61.3 27.5,-61.3L47.4,-61.1L47.2,-74.8L48.1,-76.8Q49.5,-77.7 51.9,-77.7L53.8,-76.8Q54.8,-75.4 55,-73.8L55,-60.8L72.5,-60.9Q84,-60.9 85.75,-60.5Q87.5,-60.1 87.9,-56.7L86.3,-26.1Q85.7,-22.9 82.4,-22.9L55.6,-23.5L56,4.9L55,6.8Q53.8,7.8 52.1,7.8ZM79.1,-31L80.3,-52.8L55,-53.2L55.6,-31.2L79.1,-31ZM22.5,-31L47.9,-31.2L47.4,-53.4L20.7,-53.6L22.5,-31Z"></path><path transform="translate(100 100)" d="M18.8,8Q15,7.5 15,3.9L15,3.3L16,1.4Q22.9,-1.4 29,-5.7Q35.1,-10 39.45,-13.95Q43.8,-17.9 46.2,-21.4Q32.5,-33.2 23.8,-54.2L9.6,-54.2L7.6,-55.2Q6.6,-56.3 6.6,-58.7L7.6,-60.6L9.8,-61.9L42.1,-62.5L42.1,-73.4Q42.6,-77.1 46.1,-77.1L46.8,-77.1L48.7,-76.2L49.7,-74.2L49.7,-62.5Q59.9,-62.1 70.2,-61.8Q80.5,-61.5 90.4,-59.9Q91.4,-58.7 91.4,-56.3L90.4,-54.4Q88.4,-53.2 85.9,-53.2Q85,-53.2 84,-53.4L72.2,-54Q65.9,-32.7 56.5,-20.8Q59.3,-16.9 62.9,-14.35Q66.5,-11.8 69.55,-9.5Q72.6,-7.2 75.25,-5.65Q77.9,-4.1 82,-1.6Q83,-0.4 83,2L82,3.9Q80.8,5 79.1,5L78.1,4.9Q72.2,1.8 66.6,-2.3Q61,-6.4 51.3,-14.9Q46.8,-9.6 38.7,-3.55Q30.6,2.5 26.8,4.75Q23,7 18.8,8ZM51.5,-27.1L56.2,-33.3Q62,-47.4 64.4,-54.4L32.1,-54.6Q35.6,-46.8 39.95,-39.95Q44.3,-33.1 51.5,-27.1Z"></path><path transform="translate(200 100)" d="M12.8,6.8L12.1,6.8L10.2,5.9Q8.9,4 8.9,1.6Q8.9,1.4 8.95,0Q9,-1.4 9.4,-69.7Q9.4,-74.7 11,-74.8L87.7,-74.9Q90.8,-74.9 90.8,-71.6L89.7,2.6Q89.6,6.3 87.3,6.3Q86.4,6.3 85,5.6Q78.7,3.7 75.4,1.3Q74.3,0.1 74.3,-2.2L75.4,-4.2Q76.8,-5.2 79.1,-5.2L82,-3.8L83.2,-67L17,-66.4Q16.7,-18 16.7,-1.2Q16.7,2.6 15.6,5.9Q14.5,6.8 12.8,6.8ZM53.9,-11L53.2,-11L51.3,-12Q50.3,-13.4 50.1,-15.1Q50.3,-16.7 51.3,-17.9Q56.3,-23.1 60.1,-31.2Q57.9,-33.1 55.65,-34.95Q53.4,-36.8 51.7,-39.2L51.3,-41.1Q51.8,-44.8 56.2,-44.8L58.1,-43.8L64.2,-38Q66.7,-42.3 67.85,-47.25Q69,-52.2 71,-56.7Q72.2,-57.7 74.5,-57.7L76.6,-56.7Q77.5,-55.4 77.5,-53Q74.2,-39.2 70,-31.9L77.9,-24.3L78.1,-21.8L77.1,-19.8Q75.9,-18.8 73.5,-18.8L65.7,-24.9Q64,-20.8 57.3,-12.4Q55.9,-11 53.9,-11ZM26.3,-13.4L25.7,-13.4L23.6,-14.4Q22.7,-15.5 22.7,-17.9Q28.4,-25.2 33.1,-35.3Q31.5,-37.6 29.2,-39.75Q26.9,-41.9 26.5,-44.8Q27,-48.5 30.5,-48.5L31.2,-48.5L33.1,-47.6L37,-43.1Q38.2,-46.8 39.35,-50.5Q40.5,-54.2 41.9,-57.9Q43.1,-58.9 45.4,-58.9L47.4,-57.9Q48.3,-56.5 48.3,-54.8Q48.3,-52.8 45.6,-44.8L42.5,-35.4L47.8,-29.8Q49.1,-28.2 49.1,-25.7L48.1,-23.7Q47,-22.8 44.6,-22.8L42.5,-23.9L38.4,-28.2Q36,-24.7 34.05,-21Q32.1,-17.3 28.8,-14.2Q27.6,-13.4 26.3,-13.4Z"></path><path transform="translate(300 100)" d="M51.7,8.5Q48.9,7.9 46.95,5.85Q45,3.8 43.55,1.65Q42.1,-0.5 41.9,-3L42.9,-5Q44,-6 46.4,-6L48.5,-4.6L51.1,-1.7Q52.1,-5.8 52.85,-8.7Q53.6,-11.6 53.8,-16.1L20.1,-15.9Q16.4,-16.4 16.4,-20.6L17.4,-22.6Q18.8,-23.5 20.3,-23.7L53.4,-23.7Q52.6,-28.6 47.2,-31.9Q45.5,-33.6 45.5,-35Q45.5,-36.5 47.2,-37.6Q53.1,-41.9 56.9,-46L35.6,-46Q31.9,-46.5 31.9,-50.7L32.9,-52.6L34.9,-53.6Q48.7,-54.1 57.4,-54.1Q70.5,-54.1 72.2,-53Q73.2,-52.3 73.2,-51.4Q73.2,-49.8 70.3,-47.3L56.2,-34.5Q58.5,-31.7 59.65,-29.4Q60.8,-27.1 61,-23.7Q80.9,-23.5 83.6,-23.5Q86.3,-23.5 88.7,-22.4Q89.6,-21.2 89.6,-18.8L88.7,-16.9Q86.9,-15.6 84.7,-15.6Q83.6,-15.7 61.4,-16.1Q61,-9.3 59.75,-3.9Q58.5,1.5 56.05,4.9Q53.6,8.3 51.7,8.5ZM13.9,-46.6L13.3,-46.6L11.3,-47.6Q9.7,-51.7 9.7,-56.3Q9.7,-62.4 9.2,-66.5Q9.2,-69.5 14.3,-69.7L46.4,-68.8L46,-76.4L47,-78.3Q48.3,-79.3 50.7,-79.3L52.6,-78.3Q54,-74.3 54,-68.8Q79.5,-68.3 86.4,-68.3Q89.9,-68.3 91.65,-67.85Q93.4,-67.4 93.4,-65.3Q93.4,-64.4 92.8,-61.85Q92.2,-59.3 91.8,-55.3Q91.4,-51.3 90.2,-47.8Q89.1,-46.8 86.7,-46.8L84.8,-47.8Q83.6,-49.3 83.6,-51.3Q83.6,-51.7 85,-60.6L17.2,-61.7L17.8,-49.5L16.8,-47.6Q15.6,-46.6 13.9,-46.6Z"></path><path transform="translate(400 100)" d="M69.8,8.8L69.2,8.8L67.2,7.8Q66,5.5 66,2.6Q66,1.4 66.3,-0L66.3,-44L44.7,-43.6Q41.8,-43.6 39.5,-45.2Q38.5,-46.4 38.5,-48.7L39.5,-50.7Q40.8,-51.7 42.6,-51.7L66.5,-51.7L66.3,-73.6Q66.8,-77.4 70.4,-77.4Q70.9,-77.3 73,-76.4Q74.2,-75 74.2,-73L74.2,-52.1L89.6,-52.1L91.6,-51.1Q92.6,-49.9 92.6,-48.1Q92.5,-47.6 91.6,-45.6Q90.2,-44.6 88.6,-44.4L74,-44Q74,0.6 74.1,2.1Q74.1,5.2 72.8,7.8Q71.5,8.8 69.8,8.8ZM30.4,-61.3Q29.7,-61.3 28.8,-61.6L21.6,-67Q17.7,-68.8 17.7,-72.4L17.7,-73.2Q18.7,-75.5 21.6,-75.5L32.9,-66.9Q33.6,-66 33.6,-65Q33.6,-64.4 33.4,-63.7Q32.4,-61.3 30.4,-61.3ZM26.1,2.7Q22.1,2.4 22.1,-1.9L21.8,-44.1Q11,-43.7 9.9,-43.6Q8.4,-43.6 7.4,-44.6Q6.3,-46.1 6.3,-47.5Q6.3,-49.5 9,-50.8Q15.5,-51.2 19.5,-51.2Q26.5,-51.2 28.3,-49.4Q29.7,-48 29.7,-46.5Q29.7,-46.1 29.6,-45.8L28.9,-9.7Q32.6,-14.4 36.3,-14.4Q37.6,-14.4 38.9,-13.8Q39.9,-12.7 39.9,-11.2Q39.9,-9.4 36.7,-6.25Q33.5,-3.1 31,-0.4Q28.5,2.3 26.1,2.7Z"></path><path transform="translate(500 100)" d="M10.4,8.4Q6.9,7.6 6.9,4.8Q6.9,4 7.2,3.1Q8.5,1.8 10.1,0.6Q17,-6.2 21.25,-11.1Q25.5,-16 31.3,-22.1Q27.1,-36 25.4,-50L17.2,-48.4Q14.3,-47.3 11.5,-47.3Q9.1,-47.3 6.7,-48.2Q5.6,-49.5 5.6,-50.8Q5.6,-52.1 6.65,-53.25Q7.7,-54.4 9.3,-54.4Q12.9,-54.8 24.5,-56.6Q23.1,-64.5 23.05,-69.45Q23,-74.4 22.9,-77.6Q25.1,-80 26.6,-80Q28,-80 29.9,-78.1Q30,-75.1 30.15,-70.2Q30.3,-65.3 31.5,-58.8Q38.5,-59.2 45.3,-60.7Q48.7,-61.4 52.1,-61.9Q55,-60.6 55,-58.3Q55,-57.2 53.9,-56Q45.5,-52.9 32.5,-51.1Q32.9,-46.2 33.65,-42.35Q34.4,-38.5 35.9,-30.1Q37.9,-33.6 39.4,-36.5Q40.8,-41.2 44.9,-42.7Q47.9,-42.3 48.4,-39.5Q47.4,-36 45.6,-32.9Q43.5,-29 39.1,-20.4Q42.4,-13.6 44.35,-10.65Q46.3,-7.7 50,-4.3L50.7,-8.8Q51.1,-9.8 51.8,-10.4Q53.1,-11.6 54.3,-11.6Q55.6,-11.6 56.8,-10.4Q57.6,-9.7 57.9,-8.5Q57.1,-2.8 55.8,2.6Q54.3,6.2 51.8,6.2Q48.6,4.9 46.45,2.5Q44.3,0.1 40.75,-3.4Q37.2,-6.9 34.2,-14.7Q27.9,-7.3 20.75,0.4Q13.6,8.1 10.4,8.4ZM84.5,8.7Q82.8,8.7 80.5,7.4Q76.7,6 75.6,2.2Q76.4,-1.2 79.1,-1.2Q80,-1.2 81.2,-0.8L81.9,-0.1Q81.5,-37.7 81.3,-45.4Q80.4,-72.6 80.3,-77.6Q82.5,-80 84,-80Q85.6,-80 87.4,-77.8Q87.6,-72.2 87.8,-64.65Q88,-57.1 88.6,-40.1Q89,-29.9 89,-16Q89,-6.7 88.8,4.3Q87.6,8.7 84.5,8.7ZM66.4,-33.3Q64.4,-33.3 63.3,-36.1Q62.6,-46.2 62.55,-55.9Q62.5,-65.6 62.4,-75.1Q64.7,-77.4 65.9,-77.4Q67.1,-77.4 69.5,-75.2Q69.5,-58.5 70.2,-35.4Q69.6,-35 69.1,-34.4Q67.6,-33.3 66.4,-33.3ZM43.8,-63.6Q42.1,-63.6 39.8,-65.55Q37.5,-67.5 35.2,-69.6Q33.5,-71 33.5,-72.6Q33.5,-73.8 34.6,-75.1Q35.8,-76.2 37.1,-76.2Q38.5,-76.2 41.8,-73.3Q46.8,-70.1 47.8,-66.9Q47.8,-65.4 46.7,-64.5Q45.2,-63.6 43.8,-63.6Z"></path><path transform="translate(0 200)" d="M27.1,-0.6Q25.4,-0.8 24.2,-1.8Q22.5,-6.1 21.5,-67.4L8.6,-67L6.6,-68Q5.7,-69.3 5.5,-71.1Q5.7,-72.7 6.6,-73.8Q8.8,-75.1 11.4,-75.1L37.5,-75.4Q40.9,-75.4 43.8,-74Q44.8,-72.7 44.8,-70.9L44.8,-70.3L43.8,-68.4Q42.3,-67.4 40.5,-67.2L29.2,-67.8Q30.4,-8 31,-3.7L30,-1.8Q28.6,-0.8 27.1,-0.6Z"></path><path transform="translate(50 200)" d="M39.4,0.8L38.8,0.8L36.8,-0.2Q35.4,-1.9 35.4,-4L35.4,-4.3Q36.4,-8.2 36.4,-17.1Q36.4,-25.9 35.65,-29.6Q34.9,-33.3 32.7,-36Q31.1,-37.8 28.7,-37.8Q27.5,-37.8 24.7,-37Q21.9,-36.2 20.15,-31.9Q18.4,-27.6 16.7,-23.8Q15,-20 14.6,-15.5L15,-3.5L14.1,-1.6Q12.9,-0.6 11.1,-0.6L10.5,-0.6L8.6,-1.6Q7.2,-4.5 6.9,-7.95Q6.6,-11.4 6.6,-67.8Q7.1,-71.5 10.7,-71.5L11.3,-71.5L13.3,-70.5L14.3,-68.6L14.3,-37.6Q16,-39.7 18,-41.6Q22.3,-45.9 27.2,-45.9Q28.7,-45.9 31.7,-45.25Q34.7,-44.6 38.2,-41.1Q41.7,-37.6 42.9,-32.6Q43.9,-28 43.9,-19.7Q43.9,-19 43.85,-13.9Q43.8,-8.8 43.75,-5.75Q43.7,-2.7 42.3,-0.2Q41.1,0.8 39.4,0.8Z"></path><path transform="translate(100 200)" d="M25.2,-0.2Q21.7,-0.8 18.45,-2.25Q15.2,-3.7 11.7,-7.75Q8.2,-11.8 6.9,-18.3Q5.7,-23.9 5.7,-28.7L5.8,-32.4Q6.1,-40.9 10.9,-45.9Q16.8,-52.1 24,-52.1Q24.6,-52.1 26.9,-51.9Q29.2,-51.7 32.1,-50.6Q35,-49.5 39.15,-44.7Q43.3,-39.9 44.2,-33.95Q45.1,-28 45.1,-25.6Q45.1,-23.1 43.7,-22.7Q42.3,-22.3 14.1,-21.6Q15.2,-14.6 18.7,-11.6Q22.8,-7.8 27.7,-7.8Q28.1,-7.8 29.9,-7.9Q31.7,-8 34.45,-9.8Q37.2,-11.6 40.3,-12.4L42.3,-11.4Q43.3,-10.1 43.3,-8.2L43.3,-7.6L42.3,-5.7Q37.8,-2.1 33.8,-1.15Q29.8,-0.2 25.2,-0.2ZM13.1,-29.2L37.2,-30.2Q36.8,-38 33.2,-41.25Q29.6,-44.5 24.6,-44.5Q23.5,-44.5 21.5,-44.1Q19.5,-43.7 17.35,-41.45Q15.2,-39.2 14.3,-36.45Q13.4,-33.7 13.1,-29.2Z"></path><path transform="translate(150 200)" d=""></path><path transform="translate(200 200)" d="M8.6,0.6Q5.2,0.2 4.7,-3.3L5.3,-69.5Q5.3,-75 8.1,-75.6Q10.9,-76.2 14.8,-76.2Q23.7,-76.2 30.4,-74.3Q34.3,-73.2 38.3,-69.7Q42.3,-66.2 43.8,-63.5Q45.7,-59.7 45.7,-52.7Q45.7,-46.5 43.8,-41.8Q42.5,-38.8 37,-33.8Q27.2,-24.9 16,-24.9Q14.3,-24.9 12.5,-25.1L12.5,-2.5L11.5,-0.6Q10.2,0.4 8.6,0.6ZM12.7,-32.7Q20.3,-32.9 22.7,-33.8Q25.1,-34.7 27.2,-35.8Q33.4,-38.9 36.5,-44.2Q38.2,-47.2 38.2,-51.6Q38.2,-54.2 37.6,-57.3Q37,-60.4 32.6,-63.8Q28.2,-67.2 23.9,-68.1Q21.6,-68.5 18.6,-68.5Q16.1,-68.5 13.1,-68.2L12.7,-32.7Z"></path><path transform="translate(250 200)" d="M16.2,-0.6L15.6,-0.6L13.7,-1.6Q11.1,-12.2 10.35,-23.35Q9.6,-34.5 8.6,-45.4Q9.1,-49.1 12.7,-49.1L13.3,-49.1L15.2,-48.1Q16.4,-43.7 16.7,-38.9Q17,-34.1 17.4,-29.4Q19.3,-32.5 21.95,-34.95Q24.6,-37.4 27.6,-38.65Q30.6,-39.9 33.8,-40Q37,-40.1 40.3,-40.3L42.3,-39.4Q43.3,-38.2 43.3,-36.4L43.3,-35.8L42.3,-33.9Q38.7,-33.4 34.4,-33Q27.3,-32.2 22.5,-21.8Q19.9,-16.5 19.9,-9.2L20.1,-3.5L19.1,-1.6Q18,-0.6 16.2,-0.6Z"></path><path transform="translate(300 200)" d="M24,-0.7Q19.5,-0.7 16,-2Q13.3,-2.9 10.5,-6.4Q5.5,-12.5 5.5,-22.2L5.6,-25.7Q6,-35.9 11.6,-42.3Q18.1,-49.8 26.8,-49.8Q28.1,-49.8 31.4,-49.35Q34.7,-48.9 39.1,-44.3Q43.5,-39.7 44.1,-36.4Q45.2,-29.5 45.2,-26Q45.2,-24 44.9,-20.4Q44.2,-11.6 38.5,-5.8Q33.5,-0.7 24,-0.7ZM24.1,-8.4Q28.4,-8.4 31.65,-10.2Q34.9,-12 36.1,-15.4Q37.7,-20 37.7,-25.7Q37.7,-27.6 37.45,-30.65Q37.2,-33.7 34.95,-37.3Q32.7,-40.9 30.2,-41.5Q29.1,-41.8 27.8,-41.8Q26.1,-41.8 23.4,-41.15Q20.7,-40.5 17.5,-36.6Q14.3,-32.7 13.6,-28.8Q13.1,-25.8 13.1,-23.1Q13.1,-19.1 14.5,-14.5Q16.3,-8.4 24.1,-8.4Z"></path><path transform="translate(350 200)" d="M22.5,12.7Q19.1,12.3 16.6,9.65Q14.1,7 12.4,3.9Q10.7,0.8 10.4,-2.7Q10.5,-4.3 11.5,-5.5Q12.9,-6.4 14.6,-6.4Q15.1,-6.4 17.2,-5.5Q18,-3.1 18.75,-0.75Q19.5,1.6 21.7,3.3Q23.4,4.8 25,4.8Q27.1,4.8 29.3,2.3Q31,0.4 31.9,-2.4Q32.9,-5.8 32.9,-16.9Q32.9,-24.4 31.75,-30.4Q30.6,-36.4 30.4,-43.3L31.3,-45.2Q32.7,-46.2 34.5,-46.2L35.1,-46.2L37,-45.2Q38,-38.2 39.4,-31.2Q40.5,-25 40.5,-16.4Q40.5,-15.1 40.4,-9.2Q40.3,-3.3 39.05,0.5Q37.8,4.3 34.65,7.6Q31.5,10.9 28.65,11.8Q25.8,12.7 22.5,12.7ZM32.4,-49.5Q30.1,-49.9 28.25,-51.95Q26.4,-54 26.4,-56.7Q26.4,-57 26.5,-58.65Q26.6,-60.3 28.7,-62.2Q30.3,-63.7 32.2,-63.7Q35.3,-63.7 38,-60.9Q39.6,-59.1 39.6,-56.9Q39.6,-56.4 39.25,-54.65Q38.9,-52.9 37.1,-51.3Q35.3,-49.7 32.4,-49.5Z"></path><path transform="translate(400 200)" d="M25.2,-0.2Q21.7,-0.8 18.45,-2.25Q15.2,-3.7 11.7,-7.75Q8.2,-11.8 6.9,-18.3Q5.7,-23.9 5.7,-28.7L5.8,-32.4Q6.1,-40.9 10.9,-45.9Q16.8,-52.1 24,-52.1Q24.6,-52.1 26.9,-51.9Q29.2,-51.7 32.1,-50.6Q35,-49.5 39.15,-44.7Q43.3,-39.9 44.2,-33.95Q45.1,-28 45.1,-25.6Q45.1,-23.1 43.7,-22.7Q42.3,-22.3 14.1,-21.6Q15.2,-14.6 18.7,-11.6Q22.8,-7.8 27.7,-7.8Q28.1,-7.8 29.9,-7.9Q31.7,-8 34.45,-9.8Q37.2,-11.6 40.3,-12.4L42.3,-11.4Q43.3,-10.1 43.3,-8.2L43.3,-7.6L42.3,-5.7Q37.8,-2.1 33.8,-1.15Q29.8,-0.2 25.2,-0.2ZM13.1,-29.2L37.2,-30.2Q36.8,-38 33.2,-41.25Q29.6,-44.5 24.6,-44.5Q23.5,-44.5 21.5,-44.1Q19.5,-43.7 17.35,-41.45Q15.2,-39.2 14.3,-36.45Q13.4,-33.7 13.1,-29.2Z"></path><path transform="translate(450 200)" d="M27,-1.5Q22.7,-1.5 18.9,-3.7Q16,-5.3 12.5,-9.45Q9,-13.6 7.4,-20.5Q6.1,-25.6 6.1,-29.6Q6.1,-30.9 6.5,-33.9Q7.2,-40.2 12.5,-46.8Q18.2,-53.7 27.2,-53.7Q28,-53.7 30.75,-53.45Q33.5,-53.2 36.6,-50.9Q38.2,-49.1 38.2,-47.2L38.2,-46.8L37.2,-44.8Q35.9,-43.8 34,-43.8L33.7,-43.8Q30.9,-46 28,-46Q27.3,-46 25.1,-45.6Q19.3,-44.5 16.55,-39.85Q13.8,-35.2 13.8,-29.1Q13.8,-25.9 15,-21.6Q16,-17.7 18.5,-14.4Q22.2,-9.3 27.8,-9.3Q28.6,-9.3 30.35,-9.55Q32.1,-9.8 34.45,-11.1Q36.8,-12.4 39.7,-12.6L41.7,-11.6Q42.7,-10.4 42.7,-8.6L42.7,-8L41.7,-6.1Q34,-1.5 27,-1.5Z"></path><path transform="translate(500 200)" d="M28.9,0.2Q24.6,0.2 20.7,-3.9Q17.2,-7.5 16.2,-13.85Q15.2,-20.2 14.6,-35.8L7.4,-35.4L5.5,-36.4Q4.3,-37.8 4.3,-39.6L4.3,-40.1L5.3,-42.1Q7.1,-43.4 9.5,-43.4L11.6,-43.4L15,-43.5L14.9,-48.4Q14.9,-56.2 16,-59Q17.2,-60 18.9,-60L19.5,-60L21.5,-59Q22.6,-57.4 22.6,-55.5L22.5,-54.4L22.7,-43.8L38.6,-44.2L40.5,-43.3Q41.5,-42.1 41.5,-40.3L41.5,-39.7L40.5,-37.8Q36.7,-36.5 32.3,-36.5L30.3,-36.5Q26.2,-36.5 22.3,-36Q22.9,-21.8 23.35,-17.1Q23.8,-12.4 25.3,-10Q26.4,-8.1 29.1,-8.1Q32.4,-8.1 39.7,-10.6L41.7,-9.7Q42.7,-8.5 42.7,-6.7L42.7,-6.1L41.3,-3.7Q35.9,0.2 28.9,0.2Z"></path><path transform="translate(550 200)" d=""></path><path transform="translate(600 200)" d="M10.8,-1L10.2,-1L8.2,-2Q6.4,-6.4 6.4,-11.75Q6.4,-17.1 5.5,-74.2Q6.2,-77.3 8.6,-77.3L42.1,-77L44,-76Q45,-74.8 45,-73.1L45,-72.5L44,-70.5Q42.7,-69.5 41.1,-69.3L13.5,-69.7L13.5,-49.7Q25.4,-49.4 30,-49.4L32.4,-49.4Q35.6,-49.4 38.4,-48.1Q39.4,-47 39.4,-45.2L39.4,-44.6L38.4,-42.7Q36.6,-41.5 34.5,-41.5L13.5,-42.1L14.6,-3.9L13.7,-2Q12.5,-1 10.8,-1Z"></path><path transform="translate(650 200)" d="M24,-0.7Q19.5,-0.7 16,-2Q13.3,-2.9 10.5,-6.4Q5.5,-12.5 5.5,-22.2L5.6,-25.7Q6,-35.9 11.6,-42.3Q18.1,-49.8 26.8,-49.8Q28.1,-49.8 31.4,-49.35Q34.7,-48.9 39.1,-44.3Q43.5,-39.7 44.1,-36.4Q45.2,-29.5 45.2,-26Q45.2,-24 44.9,-20.4Q44.2,-11.6 38.5,-5.8Q33.5,-0.7 24,-0.7ZM24.1,-8.4Q28.4,-8.4 31.65,-10.2Q34.9,-12 36.1,-15.4Q37.7,-20 37.7,-25.7Q37.7,-27.6 37.45,-30.65Q37.2,-33.7 34.95,-37.3Q32.7,-40.9 30.2,-41.5Q29.1,-41.8 27.8,-41.8Q26.1,-41.8 23.4,-41.15Q20.7,-40.5 17.5,-36.6Q14.3,-32.7 13.6,-28.8Q13.1,-25.8 13.1,-23.1Q13.1,-19.1 14.5,-14.5Q16.3,-8.4 24.1,-8.4Z"></path><path transform="translate(700 200)" d="M16.2,-0.6L15.6,-0.6L13.7,-1.6Q11.1,-12.2 10.35,-23.35Q9.6,-34.5 8.6,-45.4Q9.1,-49.1 12.7,-49.1L13.3,-49.1L15.2,-48.1Q16.4,-43.7 16.7,-38.9Q17,-34.1 17.4,-29.4Q19.3,-32.5 21.95,-34.95Q24.6,-37.4 27.6,-38.65Q30.6,-39.9 33.8,-40Q37,-40.1 40.3,-40.3L42.3,-39.4Q43.3,-38.2 43.3,-36.4L43.3,-35.8L42.3,-33.9Q38.7,-33.4 34.4,-33Q27.3,-32.2 22.5,-21.8Q19.9,-16.5 19.9,-9.2L20.1,-3.5L19.1,-1.6Q18,-0.6 16.2,-0.6Z"></path><path transform="translate(750 200)" d=""></path><path transform="translate(800 200)" d="M12.4,0.6Q11,0.6 9.3,-1.1Q6.1,-19.8 3.95,-36.2Q1.8,-52.6 1.6,-69.3Q2.1,-73 5.6,-73L6.3,-73L8.2,-72.1Q9.4,-61.1 10.05,-49.85Q10.7,-38.6 12.7,-27.6Q14.6,-33.5 16.2,-39.45Q17.8,-45.4 19.7,-51.1Q21.1,-52.7 22.5,-52.7Q24,-52.7 25.5,-51.1Q27.7,-34 31.5,-20.2Q34.9,-33.7 36.85,-47.4Q38.8,-61.1 41.5,-74.6Q42.9,-75.8 44.8,-75.8L45.4,-75.8L47.4,-74.8Q48.3,-73.6 48.3,-71.9L48.3,-71.3Q42.3,-29.3 35.4,-2Q33.9,0.4 32.5,0.4Q31.1,0.4 29.8,-2Q26.1,-7.8 24.75,-14.9Q23.4,-22 21.5,-28.8Q18.9,-22.8 17.6,-15.05Q16.3,-7.3 14.9,-1.1Q13.8,0.6 12.4,0.6Z"></path><path transform="translate(850 200)" d="M25.2,-0.2Q21.7,-0.8 18.45,-2.25Q15.2,-3.7 11.7,-7.75Q8.2,-11.8 6.9,-18.3Q5.7,-23.9 5.7,-28.7L5.8,-32.4Q6.1,-40.9 10.9,-45.9Q16.8,-52.1 24,-52.1Q24.6,-52.1 26.9,-51.9Q29.2,-51.7 32.1,-50.6Q35,-49.5 39.15,-44.7Q43.3,-39.9 44.2,-33.95Q45.1,-28 45.1,-25.6Q45.1,-23.1 43.7,-22.7Q42.3,-22.3 14.1,-21.6Q15.2,-14.6 18.7,-11.6Q22.8,-7.8 27.7,-7.8Q28.1,-7.8 29.9,-7.9Q31.7,-8 34.45,-9.8Q37.2,-11.6 40.3,-12.4L42.3,-11.4Q43.3,-10.1 43.3,-8.2L43.3,-7.6L42.3,-5.7Q37.8,-2.1 33.8,-1.15Q29.8,-0.2 25.2,-0.2ZM13.1,-29.2L37.2,-30.2Q36.8,-38 33.2,-41.25Q29.6,-44.5 24.6,-44.5Q23.5,-44.5 21.5,-44.1Q19.5,-43.7 17.35,-41.45Q15.2,-39.2 14.3,-36.45Q13.4,-33.7 13.1,-29.2Z"></path><path transform="translate(900 200)" d="M12.1,-1L11.5,-1L9.6,-2Q8,-6.3 8,-11.4Q8,-16.5 6.6,-70.3Q7.1,-74 10.7,-74L11.3,-74L13.3,-73L14.3,-71.1L14.6,-45.2Q19.6,-46.9 24.6,-46.9Q26.2,-46.9 28.6,-46.6Q33.1,-46.2 38.55,-40.75Q44,-35.3 44,-23.8Q44,-21.2 43.45,-17.3Q42.9,-13.4 38.8,-9.15Q34.7,-4.9 29.9,-3.8Q26.3,-3 22.4,-3L19.5,-3.1L15.8,-3.9Q15.8,-2.7 15,-2Q13.9,-1 12.1,-1ZM21.9,-10.8Q24.2,-10.8 27.25,-11.4Q30.3,-12 32.1,-12.8Q35.6,-16.3 36.2,-19.9Q36.5,-21.7 36.5,-23.6Q36.5,-25.6 36.05,-28.75Q35.6,-31.9 34.15,-34.05Q32.7,-36.2 29.6,-38Q27,-39.4 24.2,-39.4Q20.2,-39.4 15.2,-36.7L15.6,-12Q18.6,-10.8 21.9,-10.8Z"></path></svg>